<?xml version="1.0" encoding="UTF-8"?><svg id="Laag_1" xmlns="http://www.w3.org/2000/svg" viewBox="0 0 200 200"><defs><style>.cls-1{fill:#e61c31;}</style></defs><path class="cls-1" d="M196.91,170.66l-2.7-15.33c-6.09-34.21-15.31-88.44-21.35-122.66-.25-1.17-1.5-8.64-1.73-9.57-1.59-11.56-12.62-22.13-24.74-22.96-7.45-.81-15.39,1.81-21.06,6.81,0,0-1.48,1.26-1.48,1.26l-2.97,2.52-23.61,20.27c-22.73,19.78-47.77,41.68-69.98,61.78,0,0-11.54,10.43-11.54,10.43-3.29,2.94-7.8,6.78-10.05,11.46-8.26,15.2,.49,35.08,17.08,39.46,.94,.33,8.3,2.55,9.28,2.91,36.62,11.45,97.04,30.03,133.72,41.69,12.65,4.56,27.88-3.54,30.95-16.79,.98-3.7,.92-7.56,.18-11.27Zm-61.18-116.84c7.67,34.32,16.59,73.29,24.11,107-31.64-11.53-71.13-26.08-103.05-37.8,24.96-21.3,53.43-46.37,78.94-69.2Z"/></svg>