<svg xmlns="http://www.w3.org/2000/svg" width="200" height="220.553" viewBox="0 0 200 220.553">
  <path id="Icon_simple-email" data-name="Icon simple-email" d="M201.535,101.794a113.743,113.743,0,0,1-3.666,24.67,71.392,71.392,0,0,1-9.592,21.665,50.617,50.617,0,0,1-16.263,15.395c-6.615,3.9-14.512,5.857-23.746,5.857a34.425,34.425,0,0,1-17.172-4.2,29.408,29.408,0,0,1-11.6-11.894q-11.577,15.629-31.12,15.629A31.643,31.643,0,0,1,61.206,154.3a47.824,47.824,0,0,1-6.753-16.924,72.99,72.99,0,0,1-.882-22.079A102.561,102.561,0,0,1,60.3,88.26,73.5,73.5,0,0,1,72.728,67.546a52.59,52.59,0,0,1,17.09-13.2A47.686,47.686,0,0,1,110.6,49.725a64.625,64.625,0,0,1,12.431,1.061,50.885,50.885,0,0,1,9.647,2.894,52.169,52.169,0,0,1,7.994,4.217c2.439,1.571,4.893,3.2,7.332,4.851l-6.036,69.461a23.089,23.089,0,0,0,.179,8.131,11.377,11.377,0,0,0,2.481,5.017,8.93,8.93,0,0,0,4.024,2.619,14.94,14.94,0,0,0,14.14-2.784,30.138,30.138,0,0,0,7.58-9.647,62.134,62.134,0,0,0,5.1-14.5,99.48,99.48,0,0,0,2.233-18.054,115.382,115.382,0,0,0-2.839-33.738,67.063,67.063,0,0,0-12.486-26.1A57.981,57.981,0,0,0,140,26.337q-13.644-5.954-32.608-5.968Q89.4,20.37,75.14,27.4a74,74,0,0,0-24.5,19.488A93.525,93.525,0,0,0,34.593,76.2a132.1,132.1,0,0,0-6.753,36.522q-.93,21.293,3.446,37.267,4.383,16,13.617,26.71a56.823,56.823,0,0,0,23.071,16.042q13.851,5.313,31.836,5.32a109.044,109.044,0,0,0,20.893-2.246c3.446-.689,6.712-1.516,9.827-2.426a73.958,73.958,0,0,0,8.462-3.032l4.369,19.653a48.5,48.5,0,0,1-9.468,4.686,91.138,91.138,0,0,1-11.191,3.239,109.2,109.2,0,0,1-23.374,2.619q-24.022,0-42.614-6.863a78.431,78.431,0,0,1-31.065-20.425Q13.162,179.724,7,159.54q-6.14-20.177-5.21-46.817A142.781,142.781,0,0,1,10.75,67.794,111.2,111.2,0,0,1,32.333,32.1,98.348,98.348,0,0,1,65.258,8.545Q84.36-.014,107.9,0q23.443,0,41.318,7.4a80.363,80.363,0,0,1,29.824,20.811,85.406,85.406,0,0,1,17.7,32.153Q202.486,79.074,201.535,101.794ZM83.175,115.3q-1.3,15.36,2.426,23.25,3.721,7.856,11.99,7.856a13.243,13.243,0,0,0,4.107-.758,14.647,14.647,0,0,0,4.727-2.839,25.228,25.228,0,0,0,4.8-5.788,44.421,44.421,0,0,0,4.41-9.785l4.713-53.97a28.16,28.16,0,0,0-7.332-.965,25.351,25.351,0,0,0-12.2,2.8,24.146,24.146,0,0,0-8.641,8.214,48.237,48.237,0,0,0-5.733,13.506,114.571,114.571,0,0,0-3.253,18.468Z" transform="translate(-1.67)" fill="#e61c31"/>
</svg>
