<?xml version="1.0" encoding="UTF-8"?><svg id="Laag_1" xmlns="http://www.w3.org/2000/svg" viewBox="0 0 1000 1000"><defs><style>.cls-1{fill:#e61c31;}</style></defs><path class="cls-1" d="M743.05,225.34c-32.56,77.27-86.37,7.5-99.14-52.87-23.8-112.55-110.88-126.95-110.88-126.95,31.96,64.28,2.06,81.54-9.03,84.03-11.09,2.49-35.6,.65-52.63-55.77C442.3-22.53,373.5,4.49,373.5,4.49c22.79,16.2,31.37,62.55-15.84,108.49-47.2,45.94-38.01,127.85-38.01,127.85-47.67-77.76-112.85-36.95-112.85-36.95,32.79,19.69,46.24,52.21,14.1,93.8-101.01,130.73-100.84,228.08-99.05,298.47,0,.09,0,.17,0,.26,.65,25.11,2.88,40.04,2.88,40.04h.19c5.74,44.74,19.27,88.66,40.62,129.57l-69.32,233.54,233.54-69.32c145.94,76.18,330.24,52.99,452.81-69.57,64.2-64.19,101.11-145.33,110.79-229.01,42.07-312.68-150.34-406.33-150.34-406.33Z"/><path class="cls-1" d="M799.38,115.47s-65.05-41.3-101.35,.29c-36.3,41.59,3.74,105.24,3.74,105.24,0,0,12.31-101.75,97.61-105.52Z"/></svg>