<?xml version="1.0" encoding="UTF-8"?><svg id="Laag_1" xmlns="http://www.w3.org/2000/svg" viewBox="0 0 200 200"><defs><style>.cls-1{fill:#28afb0;}</style></defs><path class="cls-1" d="M177.54,200c-36.8,0-67.59-28.47-70.34-65.29l-.35-4.62c-.02-.25-.03-.5-.04-.75l-.08-2.1c-.6-14.56-12.48-26.01-27.06-26.08h-.27c-.39,0-.78-.01-1.17-.04l-9.99-.58C35.05,98.62,7.42,73.35,2.55,40.46L.24,24.86C-1.52,13.01,6.66,1.99,18.5,.23c11.87-1.75,22.87,6.42,24.62,18.27l2.31,15.6c1.88,12.68,12.53,22.42,25.32,23.16l9.42,.55c37.67,.33,68.33,30,69.87,67.67l.07,1.73,.32,4.25c1.07,14.34,13.18,25.35,27.54,25.17,.11,0,.23,0,.35,0,11.82,0,21.48,9.48,21.67,21.34,.19,11.97-9.37,21.83-21.34,22.02-.37,0-.75,0-1.12,0Z"/></svg>