<?xml version="1.0" encoding="utf-8"?>
<!-- Generator: Adobe Illustrator 26.5.0, SVG Export Plug-In . SVG Version: 6.00 Build 0)  -->
<svg version="1.1" id="Laag_1" xmlns="http://www.w3.org/2000/svg" xmlns:xlink="http://www.w3.org/1999/xlink" x="0px" y="0px"
	 viewBox="0 0 1000 1000" style="enable-background:new 0 0 1000 1000;" xml:space="preserve">
<style type="text/css">
	.st0{fill:#E61C31;}
	.st1{fill:#FFFFFF;}
</style>
<g>
	<path class="st0" d="M743,225.3c-32.6,77.3-86.4,7.5-99.1-52.9C620.1,59.9,533,45.5,533,45.5c32,64.3,2.1,81.5-9,84
		c-11.1,2.5-35.6,0.6-52.6-55.8c-29.1-96.3-97.9-69.3-97.9-69.3C396.3,20.7,404.9,67,357.7,113c-47.2,45.9-38,127.8-38,127.8
		c-47.7-77.8-112.9-36.9-112.9-36.9c32.8,19.7,46.2,52.2,14.1,93.8c-101,130.7-100.8,228.1-99.1,298.5c0,0.1,0,0.2,0,0.3
		c0.7,25.1,2.9,40,2.9,40h0.2c5.7,44.7,19.3,88.7,40.6,129.6L96.2,999.6l233.5-69.3c145.9,76.2,330.2,53,452.8-69.6
		c64.2-64.2,101.1-145.3,110.8-229C935.4,319,743,225.3,743,225.3L743,225.3z"/>
	<path class="st0" d="M799.4,115.5c0,0-65-41.3-101.3,0.3s3.7,105.2,3.7,105.2S714.1,119.2,799.4,115.5L799.4,115.5z"/>
</g>
<g>
	<path class="st1" d="M715.1,624.4c-12.4-2.6-25-4.2-37.6-5.4c-58.2-5.3-116.6-4.6-174.7-4.3c-43.8,0.6-87.7,0.1-131.5,5.7
		c-13.8,2-28,4.8-41.2,9.6c-9.4,3.6-18.7,7.4-26.2,14.4c-18.5,17.6-8.7,38.2,12.5,46.9c10,4.4,20.6,6.5,31.1,8
		c10.1,1.4,19.9,2.2,29.6,2.9c58,3.6,115.9,4.3,173.9,5.5c33.7,0.5,67.7,1,101.5,0.4c19.7-0.5,40.2-0.8,59.8-3.7
		c14.8-2.4,30.7-6.3,42.4-16.8c10.5-9.4,13.8-25,5.9-37.6C750.6,634.2,732.2,628.2,715.1,624.4L715.1,624.4z M317.8,664
		C317.8,664,317.8,664,317.8,664C317.9,664,317.8,664,317.8,664z M693.8,672.3c-44.1,3.8-98.1,3.4-142.7,4.4
		c-66.7,0.2-134,3.4-200.4-2c-8.6-1-17-2.4-24.8-5.5c-2.8-1.2-6-2.7-7.7-4.8c1.7-2.5,5.3-4.8,8.4-6.3c2.9-1.2,5.7-2.7,8.8-3.7
		c12.6-4.7,25.9-6.9,39.2-8.4c61.4-5.6,124-1.1,185.6,0c47.2,1.9,94.7,2.7,141.1,10.5c7.6,1.4,16.1,3.2,23.1,6.5
		c1.1,0.5,2.2,1.2,3.3,1.9C717.3,669.9,706.3,671,693.8,672.3L693.8,672.3z M731.5,662.4C731.5,662.3,731.5,662.3,731.5,662.4
		L731.5,662.4z"/>
	<path class="st1" d="M336.4,433.8c-3.3-15.5-12.9-29.4-25-39c11.8-6.3,20.7-16.6,21.8-31.8c2.5-30-27.2-42.4-52.4-43.7l-1.1-0.1
		l-0.6,0c-0.2,0-0.5,0-0.7,0c-4.5,0-8.2,3.5-8.9,8c-8.6,60.4-16.8,122-23.4,182.8c-0.6,6.6,4.3,12.5,10.9,13.1
		c1,0.2,2.9,0.6,3.9,0.7c27.5,4.1,55-10.7,67.6-35.5C336.8,471.3,340.6,452.7,336.4,433.8L336.4,433.8z M292,478.6
		c-4.6,7.4-11.8,12.7-19.9,16.2c3.1-28.6,5.9-57.1,8.4-85.6c6.2,5.2,11.9,11.3,15.5,17.8C305.1,442.7,301.2,463.6,292,478.6
		L292,478.6z M309,361c-0.3,3.2-1.1,5.3-2.6,7.4c-4.4,5.9-15.2,9-23.2,10c0.9-11.3,1.9-22.7,2.8-34.1
		C296.3,345.8,310.2,349.8,309,361z"/>
	<path class="st1" d="M437.9,367.6c4.2-15.4,3.3-31.6-1.5-46.8c-2.6-7.7-6.7-15.3-12.6-21.7c-10.9-11.8-26.5-17.7-42.1-17.4
		c-0.9,0.1-2.6,0.1-3.5,0.2c-5.8,0.3-10.6,5-10.9,10.9c0,0-8.8,216.1-8.8,216.1c0,15.3,21.7,16,22.9,0.9c0,0,1.9-47.4,4-97.7
		c7.1,4.3,14.2,9.5,15.8,17.8c0.7,3.2,0.2,10,0.2,13.4c-0.4,22.2-0.5,44.3,0.4,66.5c1,14,20.8,14.8,22.9,0.9c2.6-22,4.2-44,5.5-66.1
		c0.3-6.2,1.1-13.3-0.2-19.6c-1.7-10.7-7.2-20-14.9-26.8C425.8,391.1,434.2,380.6,437.9,367.6L437.9,367.6z M411.1,352.7
		c-0.8,15.4-11.2,25.1-24.6,30.2c1.2-30.7,2.4-59.2,3.1-75.4C407.7,314.8,412.2,333.9,411.1,352.7L411.1,352.7z"/>
	<path class="st1" d="M481.6,513.7c1.5-14.2,3-28.5,4.5-42.8c1.5,0.1,2.9,0.2,4.4,0.3c11.6,0.7,23.1,0.6,34.7-0.2
		c1.5-0.1,3-0.2,4.5-0.3c1.3,14.3,2.7,28.6,4.1,42.9c0.6,5.7,5.4,10.3,11.3,10.3c6.3,0.1,11.5-5,11.6-11.3c0.2-20.2-0.3-40.1-1-60.2
		c-1.7-40.3-4.4-80.7-10.5-120.7c-3.2-17.5-7.8-52.1-23.2-63.2c-6.6-5.2-17-5.6-24.2-0.9c-6.1,3.7-10.6,11.2-13.1,17
		c-6.5,15.5-9.4,31.3-12.3,47.1c-9.6,59.9-12.9,120.3-13.6,180.8C459.3,527,479.7,528,481.6,513.7L481.6,513.7z M494.9,395.4
		c2.6-19.5,5.2-39.1,8.9-58.1c1.6-7.9,3.1-16,5.2-23.7c1.9,7.6,3.3,15.6,4.7,23.3c6.1,36.5,10.2,73.5,13.8,110.5
		c-6.5-0.5-13.1-0.7-19.6-0.8c-6.4,0-12.8,0.1-19.1,0.6C490.7,429.9,492.7,412.6,494.9,395.4L494.9,395.4z"/>
	<path class="st1" d="M608,513.1l2.8-114.1c15.6,56.5,32.6,117.9,32.6,117.9c4.5,15.1,26.4,12.2,26.8-3.6l1.2-214.1
		c0-5.7-4.5-10.5-10.3-10.7c-5.9-0.2-10.8,4.4-11,10.3c0,0-2.1,62.7-4.1,122.7c-15.7-58-33.3-123.2-33.3-123.2
		c-4.5-16.2-27.9-13.2-28.1,3.7l2.2,211C587.3,526.9,607.1,526.9,608,513.1L608,513.1z"/>
	<path class="st1" d="M723.8,524.5c34-7.8,58.5-39.2,65.5-72.2c10.8-47.5-0.8-110.6-52-129c-5.2-1.9-10.7-3.2-16.3-3.6l-0.7,0
		l-0.4,0h-0.1c-2.9-0.6-7.4,0.8-9.4,2.9c-1.4,63.1-2.2,127.8-1.2,191.1C709.3,520.9,716.7,526.5,723.8,524.5L723.8,524.5z
		 M759.8,419.9c-0.1,25.7-5.8,50.1-23.4,68.4c-1.4,1.5-2.9,2.9-4.5,4.3c-0.9-48.9-3.1-97-5.6-146.2
		C752.1,360.6,760.2,390.6,759.8,419.9L759.8,419.9z"/>
	<path class="st1" d="M790.5,557.9c-2.4,0.4-556-7-557.8-6.1c-9.1,1.3-15.4,9.8-14.1,18.8l19.1,131.8c0.9,6.3,6.6,11,13.1,10.5
		c6.8-0.5,11.9-6.4,11.4-13.2l-8.1-114l536.3-3.3C807,581.7,806.5,558.6,790.5,557.9L790.5,557.9z"/>
	<path class="st1" d="M685.1,743.4c-54-11.7-128.7-6.1-178.6,18.2c-7.9,3.9-15.2,8.1-22.1,11.7c-13.8,7.2-27.7,12-42.9,15.3
		c-37.7,8-78.5,9.2-116.1,1.1c-7.3-1.8-15.2-3.9-21.5-7.7c0.5-0.4,1-0.8,1.7-1.3c8.2-5.2,18.4-7.3,28.7-9.2
		c15-2.5,30.9-3.4,46.8-3.8c16.2-0.4,32.6,0,48.9,0.7c22.7-0.7,23-33.2,0.2-34.3c-34.2,0-67.5,0.3-101.6,6.6
		c-22.6,4.3-55.9,14.2-56.5,42.8c0.6,30.3,49.9,36.3,72.8,38.9c43,3.8,86.9,0.4,127.8-13.9c15.9-5.5,31.2-15.1,45.6-22.3
		c27.9-13.7,59.3-17.9,90.2-19.1c23.3-0.7,46.9,0.9,69.4,6.1c7.7,2,16.6,4.3,22.7,8.9c0,0.1,0,0.3-0.1,0.4c-0.3,1.3-0.4,1.4-1.4,2.4
		c-20.8,16-116.3,14.2-147,15.1c-15.7,0.6-16.4,23-0.7,24.5c41.4,2.3,83.8,4.4,125.7-1.2c8.8-1.3,17.6-3,27.2-6.7
		c15.8-5.9,27.4-18.7,27-36.7C731,756.3,703.7,747.9,685.1,743.4L685.1,743.4z M301.6,780.3C301.6,780.3,301.6,780.3,301.6,780.3
		C301.5,780.2,301.5,780.1,301.6,780.3z M701.1,779.6C701.1,779.5,701.1,779.6,701.1,779.6C701.1,779.6,701.1,779.7,701.1,779.6
		C701.1,779.7,701.1,779.6,701.1,779.6z"/>
	<path class="st1" d="M378.2,854.6c-6.3-5-15.2-5-21.5,0c-9.8,8-6.9,25,5.4,28.6C379.9,888.8,391.9,866.9,378.2,854.6z"/>
	<path class="st1" d="M631.8,853.1l-217.8,2.1c-15.9,0.8-16.2,23.4-0.4,24.6l217.6,9.1c10.2,0.5,18.8-7.8,18.6-18
		C649.7,860.9,641.6,853,631.8,853.1L631.8,853.1z"/>
</g>
</svg>
