<svg xmlns="http://www.w3.org/2000/svg" width="222.007" height="222.417" viewBox="0 0 222.007 222.417">
  <path id="Icon_feather-phone" data-name="Icon feather-phone" d="M203.162,153.035V183.2a20.112,20.112,0,0,1-21.922,20.112,199.007,199.007,0,0,1-86.783-30.872,196.091,196.091,0,0,1-60.336-60.336A199.007,199.007,0,0,1,3.25,24.923,20.112,20.112,0,0,1,23.261,3H53.429A20.112,20.112,0,0,1,73.541,20.3,129.117,129.117,0,0,0,80.58,48.554a20.112,20.112,0,0,1-4.525,21.218L63.283,82.543a160.9,160.9,0,0,0,60.336,60.336l12.771-12.771a20.112,20.112,0,0,1,21.218-4.525,129.118,129.118,0,0,0,28.257,7.039,20.112,20.112,0,0,1,17.3,20.414Z" transform="translate(7.838 8.001)" fill="none" stroke="#e61c31" stroke-linecap="round" stroke-linejoin="round" stroke-width="22"/>
</svg>
