<?xml version="1.0" encoding="UTF-8"?><svg id="Laag_1" xmlns="http://www.w3.org/2000/svg" viewBox="0 0 200 200"><defs><style>.cls-1{fill:#ff9f1c;}</style></defs><path class="cls-1" d="M124.06,144.05c-6.12,3.39-13.12,5.35-19.92,6.41-6.18,.97-12.49,1.25-18.55-.18-3.06-.72-5.37-1-8.69-2.5-3.01-1.36-7.49-4.08-11.44-7.34-2.86-2.36-6.31-4.76-11.76-10.65-5.88-6.35-41.12-39.35-50.98-54.51-5.18-7.96-2.84-18.34,5.87-23.49,6.95-4.11,15.61-3.91,22.12-.38,17.18,9.37,32.55,20.23,47.46,31.48,7.09,5.42,14.02,10.98,20.82,16.64,7.11-5.36,14.35-10.6,21.73-15.71,15.53-10.59,31.5-20.78,49.17-29.41,18.29-8.79,37.9,9.36,26.94,24.57-16.29,21.4-35.02,34.19-55.36,52.49,0,0-8.97,7.9-17.42,12.58Z"/></svg>