<?xml version="1.0" encoding="UTF-8"?><svg id="Laag_1" xmlns="http://www.w3.org/2000/svg" viewBox="0 0 200 200"><defs><style>.cls-1{fill:#e61c31;}</style></defs><path class="cls-1" d="M184.8,70.08c-15.19-1.14-30.07-.44-44.86,.72-7.07,.61-14.11,1.37-21.12,2.27-1.53-6.91-3.2-13.8-5.03-20.66-3.92-14.31-8.32-28.53-14.57-42.44-2.21-4.88-6.95-8.46-12.66-8.89-8.34-.64-15.62,5.61-16.26,13.95-1.16,15.2-.47,30.07,.7,44.86,.68,7.05,1.47,14.08,2.37,21.1-6.93,1.54-13.85,3.21-20.73,5.05-14.31,3.92-28.53,8.32-42.44,14.57-4.88,2.21-8.46,6.95-8.89,12.66-.64,8.34,5.61,15.62,13.95,16.26,15.2,1.16,30.07,.47,44.86-.7,7.01-.68,14.01-1.46,20.99-2.35,4.73,21.52,11.07,42.67,19.72,63.15,6.4,14.15,27.64,10.6,28.92-5.06,1.14-15.19,.44-30.07-.72-44.86-.61-7.03-1.37-14.03-2.26-21.01,21.5-4.73,42.62-11.07,63.08-19.7,14.15-6.4,10.6-27.64-5.06-28.92Z"/></svg>