<?xml version="1.0" encoding="UTF-8"?><svg id="Laag_1" xmlns="http://www.w3.org/2000/svg" viewBox="0 0 200 200"><defs><style>.cls-1{fill:#28afb0;}</style></defs><path class="cls-1" d="M193.43,97.33c-10.44-8.25-25.96-20.28-36.45-28.55-.26-.19-.71-.55-1.22-.95,.43-6.54,1.15-17.15,1.41-21.32,.21-3.11,1.57-20.27,1.73-22.92,0,0,.17-2.29,.17-2.29,1.13-9.28-6.24-18.26-15.41-19.06-4.61-.59-9.2,1-12.87,3.64,0,0-15.49,9.91-15.49,9.91-4.99,3.2-17.33,11.07-22.68,14.52-14.46-6.08-29.06-12.34-43.46-18.51-14.17-6.02-29.23,7.35-25.09,22.12,2.17,8.53,8.07,31.65,11.36,44.58-8.93,10.2-19.93,22.87-28.19,32.34-1.68,1.99-3.67,3.99-4.84,6.36-7.1,12.84,2.38,29.27,17.01,29.67,8.61,.52,32.41,1.85,45.41,2.57,7.56,12.27,16.68,27,23.86,38.32,8.5,14.74,30.58,13.11,36.62-2.95,4.97-13.49,10.96-29.96,15.94-43.75,12.86-3.34,35.44-9.12,44.67-11.52,14.6-3.43,19.11-22.7,7.52-32.19ZM132.76,18.86v.14s-.02,.06-.02,.11c0-.02,0-.03,0-.05,0-.06,.03-.28,.02-.2ZM36.84,84.04l.07,.28c.03,.13-.04-.15-.06-.23,0,0-.01-.05-.02-.11,0,.02,.01,.04,.02,.06Zm79.7,87.25s0,0,0,0c.06,.11,.02,.03,0,0Zm12.12-58.32c-4.68,.99-8.94,3.78-11.71,7.69-1.2,1.64-2.06,3.55-2.78,5.46-.58,1.4-1.96,4.94-2.57,6.4-2.05,5.11-4.75,11.83-7.38,18.43-5.31-8.71-10.78-17.6-15.45-25.06-3.49-5.07-9.34-8.37-15.48-8.76-.28,0-9.68-.47-10.34-.48-1.2-.05-9.56-.42-18.46-.82,1.96-2.37,10.49-12.71,10.49-12.71,1.13-1.35,6.28-7.63,7.32-8.86,3.33-3.84,5.06-9.01,4.69-14.08-.1-1.38-.34-2.76-.73-4.08-1.69-5.93-5.31-18.62-8.58-30.08,9.49,3.75,19.01,7.53,28.38,11.31,5.32,2.4,11.75,2.06,16.72-1.03,8.49-5.63,18.83-12.49,28.57-18.96-.88,11.07-1.88,22.92-2.72,32.37-.84,6.04,1.56,12.39,6.34,16.23,.34,.26,1.01,.87,1.37,1.14,0,0,3.54,2.94,3.54,2.94l14.15,11.75c1.22,1.01,3.06,2.54,5.14,4.27-10.48,2.39-21.59,4.93-24.89,5.68-1.01,.21-4.61,1.06-5.61,1.26Z"/></svg>