<svg xmlns="http://www.w3.org/2000/svg" width="2177.445" height="388.478" viewBox="0 0 2177.445 388.478">
  <path id="Union_1" data-name="Union 1" d="M1301.011,386.513H922.089c-.2-.118-.447-.283-.758-.475l-.193-.121c.1.389.152.6.152.6H356.763c0,.086,0,.131,0,.131H191.494l.052-.164L55.48,385.872q.286-3.267.453-6.745t.077-6.159q-.091-2.68-.194-3.693t-.384-2.759q-.282-1.746-1.154-4.978a44.5,44.5,0,0,0-2.249-6.36,52.659,52.659,0,0,0-2.367-4.85q-.99-1.72-2.777-4.306t-3.951-5.163q-2.167-2.578-4.049-4.571T34.1,331.467q-2.9-2.831-4.811-4.634t-5.75-5.548q-3.842-3.743-6.855-7.078a82.96,82.96,0,0,1-5.637-6.954,62.59,62.59,0,0,1-3.97-6.047Q5.729,298.779,4.9,296.93t-1.953-5.188a56.256,56.256,0,0,1-1.635-5.674Q.8,283.728.493,281.475t-.438-6.44a59.376,59.376,0,0,1,.061-6.462q.193-2.279.681-5.059t.822-4.042q.334-1.259.818-2.547a12.524,12.524,0,0,1,.979-2.1,4.047,4.047,0,0,1,1.379-1.346,5.546,5.546,0,0,1,.716,1.255q.2.545.437,1.2t.576,1.615q.34.956,1.031,2.826t1.778,4.141a39.625,39.625,0,0,0,2.555,4.528,31.987,31.987,0,0,0,3.017,3.975,30.365,30.365,0,0,0,3.594,3.353,29.228,29.228,0,0,0,3.906,2.681,28.642,28.642,0,0,0,4.434,1.958,27.021,27.021,0,0,0,4.645,1.249,31.457,31.457,0,0,0,4.482.378q2.409.041,3.475-.039t3-.4a33.79,33.79,0,0,0,3.978-.925,42.8,42.8,0,0,0,7.2-3.5,41.524,41.524,0,0,0,6.356-4.032,35.949,35.949,0,0,0,2.978-3.314,33.783,33.783,0,0,0,2.754-3.815q.978-1.635,1.521-2.749t1.2-2.821a37.014,37.014,0,0,0,1.307-4.344,42.112,42.112,0,0,0,.967-6.452,47.909,47.909,0,0,0,.242-5.446q-.076-1.628-.424-4.277T69.756,236q-.413-1.877-1.348-4.89t-1.681-4.872q-.746-1.861-2.223-5.077t-2.329-4.911q-.852-1.693-1.609-3.184T58.43,208.9q-1.38-2.675-2.688-5.255t-2.779-5.97q-1.469-3.389-2.555-6.689t-1.493-4.993q-.409-1.691-.809-4.327a51.646,51.646,0,0,1-.49-6.429,43.377,43.377,0,0,1,.267-6.517,44.74,44.74,0,0,1,1.253-6q.9-3.271,1.391-4.5t1.349-2.968a50.953,50.953,0,0,1,2.781-4.726,41.313,41.313,0,0,1,3.131-4.379q1.206-1.394,2.1-2.252a18.528,18.528,0,0,1,2.306-1.839,6.34,6.34,0,0,1,2.379-1.139,2.5,2.5,0,0,1,1.069-.068,1.036,1.036,0,0,1,.189.211,2.94,2.94,0,0,1,.183.312,6.138,6.138,0,0,1,.284.688,14.913,14.913,0,0,1,.428,1.568q.246,1.071.455,1.993t.537,2.249q.328,1.326.7,2.691t.916,2.926a39.871,39.871,0,0,0,1.6,3.825,37.053,37.053,0,0,0,2.592,4.582,33.551,33.551,0,0,0,3.175,4.134,27.871,27.871,0,0,0,3.772,3.428,24.027,24.027,0,0,0,4.493,2.7,20.757,20.757,0,0,0,3.6,1.379,18.932,18.932,0,0,0,2.771.4,21.244,21.244,0,0,0,4.123-.208,19.489,19.489,0,0,0,4.574-1.1,25.8,25.8,0,0,0,2.851-1.248q.861-.477,1.376-.813t1.659-1.248a26.856,26.856,0,0,0,2.931-2.885,25.731,25.731,0,0,0,2.688-3.41,28.61,28.61,0,0,0,1.949-3.9,28.932,28.932,0,0,0,1.6-4.868,31.77,31.77,0,0,0,.718-4.45q.169-2.049.139-4t-.367-5.062q-.339-3.115-1.044-7.309t-1.007-6.086q-.3-1.893-.69-4.836t-.708-8.162q-.324-5.219-.292-6.481t.186-3.749q.155-2.484.819-6.947t1.588-8.279q.923-3.817,1.848-6.748t1.768-5.167q.844-2.234,4.016-8.763a85.928,85.928,0,0,1,4.753-8.883,59.061,59.061,0,0,1,3.947-5.154,48.219,48.219,0,0,1,4.307-4.554,49.138,49.138,0,0,1,3.851-3.161,59.155,59.155,0,0,1,5.9-3.623,50,50,0,0,1,6.563-3.168,53.089,53.089,0,0,1,7.369-1.931q4.8-.98,6.093-1.09t2.408-.154q1.109-.041,3.661.054a48.392,48.392,0,0,1,5.856.631,41.069,41.069,0,0,1,10.273,2.858,46.862,46.862,0,0,1,4.5,2.092,55.815,55.815,0,0,1,4.942,3.127,57.672,57.672,0,0,1,4.635,3.482q1.621,1.4,3.443,3.289a42.919,42.919,0,0,1,3.316,3.865,21.853,21.853,0,0,1,2.036,3.064,4.614,4.614,0,0,1,.553,1.482,1.759,1.759,0,0,1-.008.4q-.852-.208-.959-.256t-.411-.177q-.308-.131-1.242-.543t-2.991-1.258q-2.055-.845-3.156-1.195t-3.151-.873A38.8,38.8,0,0,0,189,55.379a40.4,40.4,0,0,0-5.116.27,48.7,48.7,0,0,0-5.847,1.185,47.638,47.638,0,0,0-5.479,1.673,52.81,52.81,0,0,0-4.791,2.249,47.082,47.082,0,0,0-4.566,2.648q-1.724,1.167-3.51,2.649t-2.917,2.61q-1.133,1.126-2.572,2.819a52.482,52.482,0,0,0-3.586,4.961,47.126,47.126,0,0,0-3.473,6.16,51,51,0,0,0-2.22,5.678q-.894,2.788-1.345,4.8t-.911,5.975a61.53,61.53,0,0,0-.432,7.558q.027,3.595.177,5.113t.631,4.387a52.58,52.58,0,0,0,1.572,6.471,41.359,41.359,0,0,0,2.547,6.516,34.9,34.9,0,0,0,3.181,5.232,31.672,31.672,0,0,0,3.776,4.238,27.843,27.843,0,0,0,4.068,3.2,25.687,25.687,0,0,0,4.4,2.213,23.27,23.27,0,0,0,4.038,1.246,21.039,21.039,0,0,0,2.936.371,20.2,20.2,0,0,0,3-.127,20.8,20.8,0,0,0,3.351-.633,19.048,19.048,0,0,0,2.722-.941,20.059,20.059,0,0,0,2.741-1.59,31.961,31.961,0,0,0,6.96-7.165,27.139,27.139,0,0,0,1.71-3.395,35.9,35.9,0,0,0,1.663-5.228,40.14,40.14,0,0,0,1.04-5.367q.222-2.116.273-4.111t.049-3.619q0-1.619-.012-2.1t.021-1.071a5.3,5.3,0,0,1,.123-.951c.06-.24.172-.353.337-.341a2.682,2.682,0,0,1,.973.572,16.538,16.538,0,0,1,2.341,2.651,39.474,39.474,0,0,1,2.906,4.33q1.29,2.232,2.069,3.81t1.683,3.805q.9,2.229,1.622,4.685t.909,3.39q.188.933.42,2.367t.4,3.615a45.7,45.7,0,0,1,.056,5.094,47.292,47.292,0,0,1-.415,5.014,42.928,42.928,0,0,1-1.022,4.786,46.253,46.253,0,0,1-2,5.779,52.415,52.415,0,0,1-3.087,6.191,65.564,65.564,0,0,1-4.175,6.273q-2.372,3.177-3.765,4.77t-4.344,4.7q-2.951,3.112-8.862,8.884t-7.545,7.372q-1.634,1.6-4.874,4.95t-6.816,7.6a90.136,90.136,0,0,0-5.828,7.608q-2.254,3.356-3.37,5.418t-2.756,6a59.572,59.572,0,0,0-2.279,6.176q-.636,2.242-1.28,5.817a67.878,67.878,0,0,0-.739,15.554q.276,3.112.573,4.806t.938,4.007a38.7,38.7,0,0,0,1.738,4.876,38.013,38.013,0,0,0,3.177,5.74,31.272,31.272,0,0,0,3.32,4.437,29.4,29.4,0,0,0,3.349,2.826,24.9,24.9,0,0,0,4.444,2.639,25.213,25.213,0,0,0,4.236,1.557,24.74,24.74,0,0,0,3.054.619,25.825,25.825,0,0,0,2.706.151,26.131,26.131,0,0,0,3.179-.172,29.264,29.264,0,0,0,4.206-.894,27.521,27.521,0,0,0,4.714-1.743,29.761,29.761,0,0,0,4.58-2.833,30.307,30.307,0,0,0,4.04-3.483,32.848,32.848,0,0,0,2.228-2.529q.633-.843,1.956-2.893a55.343,55.343,0,0,0,2.89-5.195q1.568-3.145,3.069-6.742t3.31-7.806q1.811-4.212,3.809-8.083A74.626,74.626,0,0,1,213.1,238.8a61.47,61.47,0,0,1,3.775-5.172,99.1,99.1,0,0,1,11.659-11.441q2.383-1.872,5.364-3.907t5.721-3.69q2.739-1.654,4.951-2.858t4.2-2.155q1.992-.951,3.341-1.517t3.3-1.311q1.952-.747,3.064-1.071a12.227,12.227,0,0,1,1.885-.419q.777-.094,1.12-.1a3.632,3.632,0,0,1,.4.009,19.268,19.268,0,0,1-1.479,1.354q-.586.468-1.187.974t-2.115,1.8q-1.514,1.288-4.4,4.164a59.967,59.967,0,0,0-4.672,5.127q-1.784,2.253-3.364,4.683t-2.839,4.853q-1.258,2.422-2.59,5.721t-2.234,6.3q-.9,3-1.684,6.421t-1.291,6.492q-.506,3.073-.865,6.131t-.519,5.462q-.16,2.4-.256,6.066t-.073,6.945q.023,3.284.207,7.9t.413,8q.23,3.386.6,7.925.152,1.877.28,3.575c.223,1.291.4,2.805.524,4.56,3.345,46.817,99.638,67.905,110.976,11.42.059-.293.117-.577.175-.861q-.015-2.32-.133-5.528a87.7,87.7,0,0,0-1.005-11.094q-.766-4.544-1.381-6.831t-2.027-6.033a62.481,62.481,0,0,0-2.944-6.709q-1.536-2.964-2.9-5.076a77.3,77.3,0,0,0-6.42-7.7,70.952,70.952,0,0,0-7.5-7.5,50.523,50.523,0,0,0-5.388-3.648,49.817,49.817,0,0,0-5.455-2.829,51.723,51.723,0,0,0-14.513-3.045,32.611,32.611,0,0,0-4.542.28,26.259,26.259,0,0,0-3.877.841,29.022,29.022,0,0,0-4.175,1.67,29.447,29.447,0,0,0-4.511,2.7,35.456,35.456,0,0,0-3.868,3.2,40.361,40.361,0,0,0-3.484,3.9q-1.816,2.285-2.744,3.63t-1.254,1.795q.016-.029.108-.714a13.437,13.437,0,0,1,.527-2.071q.432-1.369,1.042-2.992t1.175-2.986q.565-1.363,2.569-5.472t3.525-6.707q1.521-2.6,2.629-4.217t1.655-2.323q.548-.7,2.7-3.252t3.793-4.17q1.637-1.623,3.212-2.908t2.433-1.9q.858-.61,4.91-2.82a56.452,56.452,0,0,1,5.612-2.806,36.95,36.95,0,0,1,4.945-1.325,38.317,38.317,0,0,1,5.272-.845,33.483,33.483,0,0,1,3.63-.038,34.45,34.45,0,0,1,4.145.491,35.281,35.281,0,0,1,4.857,1.2q2.456.789,3.886,1.376a49,49,0,0,1,4.542,2.32q3.113,1.731,4.729,2.755t2.307,1.465q.69.442,2.561,1.661t3.327,2.08q1.455.861,2.761,1.525t2.95,1.409a36.089,36.089,0,0,0,4.152,1.521,29.7,29.7,0,0,0,5.472,1.107,30.328,30.328,0,0,0,5.091.2,25.876,25.876,0,0,0,3.438-.393,24.924,24.924,0,0,0,3.135-.9,31.754,31.754,0,0,0,3.121-1.245,36.719,36.719,0,0,0,3.994-2.4,38.967,38.967,0,0,0,4.01-2.942,37.8,37.8,0,0,0,2.857-2.838,46.64,46.64,0,0,0,6.417-9.316,39.461,39.461,0,0,0,3.534-9.993,42.234,42.234,0,0,0,.74-5.39,39.458,39.458,0,0,0,.1-5.064,35.882,35.882,0,0,0-.548-4.509,46.247,46.247,0,0,0-1.46-5.558,44.778,44.778,0,0,0-1.64-4.553q-.607-1.319-1.561-3t-1.544-2.567q-.589-.891-3.122-3.948a55.248,55.248,0,0,0-4.757-5.133,57.6,57.6,0,0,0-5.672-4.55q-3.449-2.475-7.129-4.636t-6.214-3.525q-2.534-1.364-5.8-3.242t-5.519-3.44q-2.254-1.563-3.585-2.665a41.29,41.29,0,0,1-3.108-2.925,36.528,36.528,0,0,1-3.072-3.55,31.256,31.256,0,0,1-2.352-3.639,33.863,33.863,0,0,1-1.784-3.724q-.728-1.813-1.4-4.1t-1.124-4.427q-.452-2.143-.664-3.338t-.9-5.61q-.692-4.415-1.331-7.517t-1.187-5q-.548-1.9-1.348-3.907a41.666,41.666,0,0,0-1.816-3.943,39.985,39.985,0,0,0-2.61-4.226,32.59,32.59,0,0,0-4.673-5.122,31.859,31.859,0,0,0-5.065-3.99,24.371,24.371,0,0,0-3.454-1.72,19.426,19.426,0,0,0-2.817-.857,19.034,19.034,0,0,0-3.56-.337,23.337,23.337,0,0,0-3.675.166,21.359,21.359,0,0,0-3.066.691,23.872,23.872,0,0,0-3.612,1.465,30.057,30.057,0,0,0-3.956,2.341q-1.95,1.358-2.846,2.074t-1.882,1.605q-.987.89-1.406,1.281t-.668.615c-.007.01.024-.15.09-.478a19.667,19.667,0,0,1,1.783-3.234q1.684-2.743,3.271-4.94t3.4-4.373q1.813-2.176,3.3-3.7t3.342-3.132a38.9,38.9,0,0,1,3.407-2.667,44.022,44.022,0,0,1,4.011-2.373,34.15,34.15,0,0,1,4.932-2.164,32.5,32.5,0,0,1,4.95-1.288,33.948,33.948,0,0,1,8.513.259,37.184,37.184,0,0,1,9.2,1.972,40.649,40.649,0,0,1,6.467,3.363,47.859,47.859,0,0,1,5.4,3.87q2.094,1.784,3.6,3.349t3.716,4.384q2.21,2.817,4.047,5.529t2.923,4.425q1.085,1.71,2.95,4.92t3.065,5.169q1.2,1.959,2.528,3.927t2.348,3.242q1.019,1.274,2.1,2.386a28.767,28.767,0,0,0,2.962,2.569,24.224,24.224,0,0,0,3.467,2.294,19.922,19.922,0,0,0,2.918,1.282,18.124,18.124,0,0,0,4.042.665,17.675,17.675,0,0,0,4.653-.157,21.609,21.609,0,0,0,3.215-.832,20.088,20.088,0,0,0,3.975-2.361,25.607,25.607,0,0,0,3.792-3.075,26.806,26.806,0,0,0,2.3-2.923,25.732,25.732,0,0,0,2.105-3.619,29.833,29.833,0,0,0,1.3-3.072,33.589,33.589,0,0,0,.961-4.4,35.723,35.723,0,0,0,.581-5.485,30.668,30.668,0,0,0-.687-5.977,39.488,39.488,0,0,0-1.51-5.85,49.823,49.823,0,0,0-3.409-6.7,62.428,62.428,0,0,0-3.846-6.128q-1.228-1.585-2.656-3.189t-3.4-3.658q-1.974-2.052-3.023-3.152t-2.38-2.6q-1.331-1.5-2.417-2.779t-2.9-3.833a34.823,34.823,0,0,1-2.92-4.833A28.333,28.333,0,0,1,382,40.362a25.1,25.1,0,0,1-.861-5.147,24.851,24.851,0,0,1,.071-4.966A21.922,21.922,0,0,1,382.232,26a25.876,25.876,0,0,1,1.816-4.1,30.206,30.206,0,0,1,3.163-4.463,32.643,32.643,0,0,1,4.5-4.5,31.925,31.925,0,0,1,5.126-3.418,20.407,20.407,0,0,1,4.9-1.964,10.483,10.483,0,0,1,3.066-.405,4.664,4.664,0,0,1,1.472.386,2.532,2.532,0,0,1,.721.442,19.884,19.884,0,0,1,.9,3.975q.094,1.332.126,2.55t.378,5.323q.344,4.1.76,6.4a28.842,28.842,0,0,0,1.058,4.17,28.5,28.5,0,0,0,1.155,2.95q.514,1.073,1.125,2.083a21.871,21.871,0,0,0,2.553,3.073,26.148,26.148,0,0,0,3.069,2.9q1.126.837,1.822,1.29t1.636.963a21.841,21.841,0,0,0,3.389,1.288q2.449.778,4.293,1.186t2.624.561q.781.153,4.052.539t6.962.962q3.691.575,6.421,1.251t4.023,1.15q1.293.473,2.2.89t1.678.8q.769.387,4.525,3.124a40.917,40.917,0,0,1,5.728,4.854,43.989,43.989,0,0,1,3.989,5.051,50.358,50.358,0,0,1,4.23,7.916,56.512,56.512,0,0,1,2.723,6.91,48.072,48.072,0,0,1,1,5.393,47.589,47.589,0,0,1,.472,6.719,45.891,45.891,0,0,1-.467,6.423q-.456,3.167-.9,4.974t-1.435,4.79q-.989,2.985-2.462,6.5t-2.286,5.279q-.814,1.763-2.753,5.84t-3.752,8.491q-1.812,4.413-2.332,5.973t-1.152,3.952a54.407,54.407,0,0,0-1.181,7.052,46.393,46.393,0,0,0-.336,8.134,38.706,38.706,0,0,0,.7,5.715,34.473,34.473,0,0,0,.9,3.459,36.818,36.818,0,0,0,1.9,4.149,28.118,28.118,0,0,0,4.808,7.114,26.521,26.521,0,0,0,7.881,5.513,27.069,27.069,0,0,0,10.035,2.563q2,.084,3.07.018a27.355,27.355,0,0,0,3.1-.447,36.24,36.24,0,0,0,9.185-3.23,34.906,34.906,0,0,0,3.156-1.834,33.113,33.113,0,0,0,2.987-2.4,30.4,30.4,0,0,0,3.932-4.33,30.941,30.941,0,0,0,3.241-5.1,30.144,30.144,0,0,0,1.8-4.385q.6-1.957.81-3.035t.357-1.926q.148-.848.328-3.626t.2-5.1q.022-2.324.072-3.2t.162-1.788a5.232,5.232,0,0,1,.621-1.853,2.429,2.429,0,0,1,1.206.041,5.535,5.535,0,0,1,1.944.871,20.246,20.246,0,0,1,2.379,1.9,41.723,41.723,0,0,1,3.1,3.214,50.783,50.783,0,0,1,4.115,5.563,59.912,59.912,0,0,1,3.668,6.245,44.79,44.79,0,0,1,2.426,6.084,48.018,48.018,0,0,1,1.618,6.349,42.679,42.679,0,0,1,.62,6.1,47.281,47.281,0,0,1-.351,6.951,52.9,52.9,0,0,1-1.375,7.315q-.925,3.511-1.592,5.349t-1.916,4.522a64.233,64.233,0,0,1-4.011,7q-2.763,4.323-4.536,6.594t-5.551,6.462q-3.779,4.192-5.732,6.424t-4.131,5.243a42.876,42.876,0,0,0-3.277,5.131,27.971,27.971,0,0,0-1.844,4.477,23.085,23.085,0,0,0-.972,4.887,22.366,22.366,0,0,0-.053,4.2,18.977,18.977,0,0,0,.817,3.7,21.737,21.737,0,0,0,1.961,4.311,25.209,25.209,0,0,0,3.184,4.33,27.924,27.924,0,0,0,4.673,4.022,35.737,35.737,0,0,0,6.275,3.478,42.945,42.945,0,0,0,7.694,2.462,50.177,50.177,0,0,0,8.808,1.157,53.247,53.247,0,0,0,7.762-.131q3.182-.334,5.021-.7t5.012-1.291a66.747,66.747,0,0,0,7.518-2.811,73.633,73.633,0,0,0,9.036-4.744,89.724,89.724,0,0,0,8.243-5.622q3.551-2.759,5.241-4.261t4.517-4.367q2.828-2.865,3.994-4.186t3.774-4.686a85.841,85.841,0,0,0,5.374-7.918,79.671,79.671,0,0,0,4.437-8.22,73.294,73.294,0,0,0,2.927-7.5q1.258-3.831,1.854-6.452t1.188-7.3q.592-4.677.7-7.114t-.037-6.8q-.145-4.364-.592-8.013t-1-6.537q-.558-2.889-1.294-5.829t-2.572-8.2a99.4,99.4,0,0,0-3.7-9.267q-1.87-4.005-3.252-6.528t-3.887-6.36q-2.505-3.836-4.747-6.783t-3.948-4.988q-1.706-2.042-2.931-3.451t-4.746-5.439q-3.521-4.032-6.769-7.962t-5.2-6.582q-1.954-2.652-4.3-6.393T563,97.12a54.94,54.94,0,0,1-2.661-6.393,52.216,52.216,0,0,1-1.751-6.137q-.587-2.774-.883-5.166t-.386-4.33q-.091-1.94.09-5.629t.677-10.954a84.18,84.18,0,0,0,.184-11.412,46.291,46.291,0,0,0-.967-6.927,35.862,35.862,0,0,0-1.6-5.143,27.537,27.537,0,0,0-3.062-5.378,30.358,30.358,0,0,0-3.609-4.431,31.624,31.624,0,0,0-2.437-2.134,25.89,25.89,0,0,0-2.94-1.822,25.47,25.47,0,0,0-3.591-1.682,23.951,23.951,0,0,0-3.7-.974,25.2,25.2,0,0,0-3.619-.452,30.358,30.358,0,0,0-4.106.217,34.26,34.26,0,0,0-5.359,1.02,39.329,39.329,0,0,0-4.875,1.631q-2.115.884-3.147,1.4t-3.115,1.623q-2.083,1.11-2.963,1.484a5.183,5.183,0,0,1-1.54.43q-.127-.163.233-1.38a8.74,8.74,0,0,1,1.141-2.387q.781-1.171,1.374-1.907t2.815-3.016a53.3,53.3,0,0,1,4.831-4.372A56.892,56.892,0,0,1,524.2,8.654,58.166,58.166,0,0,1,531.256,5,59.953,59.953,0,0,1,547.386.67a61.1,61.1,0,0,1,7.408-.54,52.761,52.761,0,0,1,5.966.352,51.784,51.784,0,0,1,7.038,1.41A49.928,49.928,0,0,1,576.548,5.2a47.927,47.927,0,0,1,8.356,5.02,44.6,44.6,0,0,1,5.833,5.145,40.045,40.045,0,0,1,3.8,4.79q1.622,2.422,2.268,3.64t1.723,3.831a49.043,49.043,0,0,1,2.014,6.2,72.721,72.721,0,0,1,1.591,8.275q.653,4.683.916,7.166t1.492,9.608a67.43,67.43,0,0,0,2.105,9.545,29.247,29.247,0,0,0,2.169,4.661,29.651,29.651,0,0,0,2.145,3.325,23.435,23.435,0,0,0,2.122,2.309,21.216,21.216,0,0,0,2.971,2.364A23.185,23.185,0,0,0,619,82.807a22.542,22.542,0,0,0,3.975,1.241,23.233,23.233,0,0,0,5.561.641,25.339,25.339,0,0,0,5.71-.686,33.141,33.141,0,0,0,4.374-1.27,33.607,33.607,0,0,0,3.154-1.453,47.79,47.79,0,0,0,5.276-3.524,48.975,48.975,0,0,0,5.984-5.077,46.828,46.828,0,0,0,7.283-9.738q1.146-2.1,1.91-3.887a46.435,46.435,0,0,0,1.719-5.071,41.167,41.167,0,0,0,1.358-6.741,40.587,40.587,0,0,0-.443-12.773q-.6-3.141-1.22-5.265t-1.064-3.367q-.445-1.243-.732-2t-.648-1.8a14.511,14.511,0,0,1-.475-1.571,3.866,3.866,0,0,1-.088-1.024q.071-.038,2.582.284a20.342,20.342,0,0,1,5.4,1.562q2.887,1.24,4.437,2.056t5.084,3.1a65.613,65.613,0,0,1,6.19,4.47,54.037,54.037,0,0,1,4.716,4.35,44.652,44.652,0,0,1,4.707,6.2A46.219,46.219,0,0,1,697.8,48.87a45.221,45.221,0,0,1,2.249,6.943,46.875,46.875,0,0,1,1.132,7.224,45.866,45.866,0,0,1-.117,7.86,54.652,54.652,0,0,1-.878,6.33,54.859,54.859,0,0,1-1.551,5.294,59.07,59.07,0,0,1-2.535,6.273q-1.46,3.093-2.83,5.458t-7.459,10.829l-9.286,12.9q-3.2,4.443-4.509,6.54t-2.738,4.832a53.815,53.815,0,0,0-2.613,5.881,42.092,42.092,0,0,0-1.77,5.8,31.4,31.4,0,0,0-.7,5.368,33.566,33.566,0,0,0,1.044,7.99,32.483,32.483,0,0,0,2.195,7.215,29.389,29.389,0,0,0,2.027,3.339,30.669,30.669,0,0,0,2.572,3.072,36.276,36.276,0,0,0,3.447,3.211,33.211,33.211,0,0,0,4.462,3.027,37.755,37.755,0,0,0,6.031,2.735,45.127,45.127,0,0,0,6.31,1.821,56.906,56.906,0,0,0,8.12.823,63.772,63.772,0,0,0,8.846-.1,59.924,59.924,0,0,0,7.651-1.277,58.667,58.667,0,0,0,8.941-2.926,57.958,57.958,0,0,0,8.051-3.92,47.272,47.272,0,0,0,5.828-4.154,43.264,43.264,0,0,0,5.229-5.271,45.667,45.667,0,0,0,3.98-5.338,49.14,49.14,0,0,0,2.943-5.771,52.77,52.77,0,0,0,2.271-5.933q.738-2.456,1.535-5.792t1.348-4.882a9.226,9.226,0,0,1,.8-1.869q.249-.323.443-.3a1.788,1.788,0,0,1,.534.177c.226.106.355.167.385.184s.3.3.8.846a11.31,11.31,0,0,1,1.257,1.619q.5.8,1.625,3.121a53.311,53.311,0,0,1,2.438,6.319,67.337,67.337,0,0,1,2.169,8.506q.855,4.508,1.077,7a74.251,74.251,0,0,1,.062,7.894,65.365,65.365,0,0,1-.779,8.964q-.618,3.56-1.177,5.542t-1.382,4.149q-.825,2.169-1.412,3.435t-1.724,3.3a47.536,47.536,0,0,1-3.182,4.819,50.692,50.692,0,0,1-5.417,6.076,69.482,69.482,0,0,1-7.514,6.327q-4.141,3.033-5.181,3.709t-6.048,3.6q-5.007,2.918-11.491,6.3t-9.721,5.07q-3.236,1.693-6.7,3.685t-5.709,3.417q-2.247,1.426-5.2,3.6t-4.837,3.8q-1.888,1.628-2.826,2.533t-2.824,2.977q-1.888,2.072-3.165,3.755t-2.037,2.824q-.759,1.14-2.13,3.56a48.374,48.374,0,0,0-2.577,5.333,42.511,42.511,0,0,0-2.017,6.267,44.216,44.216,0,0,0-1.049,5.7,46.7,46.7,0,0,0-.125,6.026,45.455,45.455,0,0,0,.714,6.882,43.358,43.358,0,0,0,2.271,7.529,44.379,44.379,0,0,0,3.7,7.547A43.042,43.042,0,0,0,683,309.886a37.769,37.769,0,0,0,4.188,4.1,40.75,40.75,0,0,0,3.6,2.772q1.312.855,2.537,1.507t3.091,1.427a35.273,35.273,0,0,0,10,2.393,37.643,37.643,0,0,0,5.892.076,38.457,38.457,0,0,0,6.442-1.039,42.645,42.645,0,0,0,6.939-2.332,50.465,50.465,0,0,0,5.3-2.581q1.865-1.1,3.06-1.922t3.144-2.375q1.949-1.55,4.457-3.911a65.367,65.367,0,0,0,4.874-5.126q2.364-2.763,4.391-5.6t3.173-4.663q1.147-1.823,2.222-3.672t2.7-4.965q1.623-3.119,3.822-7.444t4.8-9.136q2.605-4.809,4.167-7.322a66.1,66.1,0,0,1,4.153-5.8,55.007,55.007,0,0,1,5.438-5.978,47.181,47.181,0,0,1,5.305-4.4,43.186,43.186,0,0,1,4.724-2.893,47.01,47.01,0,0,1,7.062-2.687,49.319,49.319,0,0,1,7.894-1.924,48.48,48.48,0,0,1,5.987-.44q2.89-.026,4.721.146t4.718.72a46.675,46.675,0,0,1,6.58,1.836,38.59,38.59,0,0,1,6.539,2.926,17.377,17.377,0,0,1,4.392,3.39,6.869,6.869,0,0,1,1.786,3.11,11.164,11.164,0,0,1-1.372,1.04,16.667,16.667,0,0,1-3.744,1.818q-2.445.9-3.97,1.439t-2.392.882q-.866.346-2.125.9t-2.607,1.258q-1.348.706-2.413,1.375a29.789,29.789,0,0,0-2.642,1.934,26.634,26.634,0,0,0-3.364,3.331,30.73,30.73,0,0,0-2.618,3.371,18.869,18.869,0,0,0-1.449,2.769,19.423,19.423,0,0,0-1.054,4.534,18.553,18.553,0,0,0-.19,4.856,14.6,14.6,0,0,0,.653,2.916,11.528,11.528,0,0,0,1.144,2.286,13.644,13.644,0,0,0,2.208,2.525,12.738,12.738,0,0,0,2.679,2,13.816,13.816,0,0,0,3.5,1.087,18.744,18.744,0,0,0,4.818.308,33.35,33.35,0,0,0,3.772-.385q1.251-.234,3.649-.9t3.859-1.051a22.117,22.117,0,0,1,2.513-.537,11.048,11.048,0,0,1,2.117-.093,9.495,9.495,0,0,1,2.071,3.184,11.923,11.923,0,0,1,.172,3.629,21.794,21.794,0,0,1-.59,4.114,26.842,26.842,0,0,1-.889,2.835q-.452,1.171-.966,2.244t-1.356,2.483a30.585,30.585,0,0,1-2.626,3.567,31.553,31.553,0,0,1-3.92,3.968,30.313,30.313,0,0,1-7.825,4.887q-1.685.7-2.511.974t-2.685.737q-1.86.466-4.621.874t-5.878.61q-3.116.2-4.882.283t-4.384.244q-2.619.163-6.631.672t-6.1.963a40.236,40.236,0,0,0-8.94,3.22q-1.92.993-3,1.685a44.6,44.6,0,0,0-4.47,3.842,36.3,36.3,0,0,0-4.586,4.841,33.564,33.564,0,0,0-2.6,4.588,31.653,31.653,0,0,0-2.109,5.47,29.052,29.052,0,0,0-.92,4.9,25.749,25.749,0,0,0,.04,4.97,24.1,24.1,0,0,0,1,4.946,22.5,22.5,0,0,0,4.636,7.893,23.487,23.487,0,0,0,1.814,1.7,13.054,13.054,0,0,0,1.623,1.1,14.948,14.948,0,0,0,1.825.918,22.389,22.389,0,0,0,2.555.818q1.681.455,2.277.541t1.159.153q.56.065,1.632.114t1.752.034l.186-.005c2.216-.308,4.787-.578,7.756-.8,37.279-2.808,97.933-3.568,103.777-40.182q.094-2.428.238-4.624.246-3.793.438-6.8c.126-2.008.218-4.1.291-6.28s.035-4.619-.1-7.312a62.984,62.984,0,0,0-.63-6.783,45.565,45.565,0,0,0-1.059-5.03,34.3,34.3,0,0,0-1.4-4.162,27.281,27.281,0,0,0-1.907-3.743,28.324,28.324,0,0,0-5.046-6.033,24.525,24.525,0,0,0-2.39-1.744A26.11,26.11,0,0,0,879.8,278.8q-1.08-.52-2.134-.9c-.711-.255-1.359-.466-1.963-.63s-1.176-.292-1.7-.393-1.086-.2-1.662-.31a9.039,9.039,0,0,1-1.889-.612,4.116,4.116,0,0,1,.055-.611,3.135,3.135,0,0,1,.311-.84,9.334,9.334,0,0,1,1.3-1.58,15.528,15.528,0,0,1,2.015-1.825q.972-.712,2.164-1.424a24.568,24.568,0,0,1,2.6-1.314,26.654,26.654,0,0,1,3.514-1.205,31.03,31.03,0,0,1,3.348-.776c.822-.128,1.734-.219,2.728-.274s1.88-.054,2.628-.027a22.157,22.157,0,0,1,3.138.42,26.8,26.8,0,0,1,3.339.813c.885.292,1.57.548,2.062.757s1.1.511,1.843.895,1.342.7,1.8.986.967.639,1.561,1.077,1.141.868,1.651,1.314.9.785,1.178,1.032.7.684,1.3,1.314a33.189,33.189,0,0,1,2.236,2.711c.894,1.186,1.8,2.492,2.692,3.906s1.587,2.547,2.062,3.368.82,1.443,1.048,1.853.639,1.123,1.233,2.154,1.114,1.936,1.56,2.684,1.022,1.67,1.7,2.747a31.413,31.413,0,0,0,2.4,3.232,30.312,30.312,0,0,0,2.327,2.51,14.451,14.451,0,0,0,2.582,1.825,19.307,19.307,0,0,0,2.418,1.232,16.55,16.55,0,0,0,2.626.621,13.988,13.988,0,0,0,3.413.219,16.216,16.216,0,0,0,3.139-.53,16.05,16.05,0,0,0,2.837-1.013,25.1,25.1,0,0,0,2.546-1.4,28,28,0,0,0,2.637-1.89A33.127,33.127,0,0,0,951.9,295.5c1.4-1.543,2.328-2.62,2.774-3.231s1.077-1.588,1.871-2.93,1.378-2.383,1.742-3.14.822-1.862,1.387-3.332a48.38,48.38,0,0,0,2.638-11.2,40.027,40.027,0,0,0,.027-6.49,49.016,49.016,0,0,0-.793-6.326c-.365-1.725-.75-3.222-1.15-4.509s-1.314-3.524-2.719-6.709-2.729-5.87-3.933-8.042-2.3-4.054-3.284-5.642-1.706-2.747-2.182-3.478-1.258-1.981-2.363-3.752-2.227-3.615-3.349-5.531-1.942-3.359-2.472-4.345-.977-1.89-1.35-2.7-.885-2.072-1.523-3.8a50.1,50.1,0,0,1-1.67-5.486,44.645,44.645,0,0,1-1.013-7.513,53.361,53.361,0,0,1-.009-7.859,50.707,50.707,0,0,1,.776-5.642c.328-1.6.61-2.82.847-3.651s.73-2.237,1.461-4.218a46.754,46.754,0,0,1,1.788-4.363,30.825,30.825,0,0,1,2.527-3.971,32.163,32.163,0,0,1,2.335-3.058,7.507,7.507,0,0,1,1.724-1.1,4.635,4.635,0,0,1,1.634-.62.8.8,0,0,1,.584.219,3.606,3.606,0,0,1,.383.512,5.319,5.319,0,0,1,.346.638c.111.219.246.557.42.995a19.254,19.254,0,0,1,.613,1.972c.237.886.5,1.945.783,3.186s.675,2.729,1.159,4.473.94,3.2,1.378,4.39a32.219,32.219,0,0,0,1.587,3.579,26.814,26.814,0,0,0,2.7,4.08,23.662,23.662,0,0,0,3.76,3.907,20.2,20.2,0,0,0,3.85,2.538,19.69,19.69,0,0,0,3.12,1.259,14.341,14.341,0,0,0,2.582.484,16.629,16.629,0,0,0,3.266-.055,20.087,20.087,0,0,0,4.052-.831,24.05,24.05,0,0,0,5-2.364,31.619,31.619,0,0,0,4.407-3.04,35.508,35.508,0,0,0,2.974-2.912,38.667,38.667,0,0,0,2.911-3.661,41.861,41.861,0,0,0,2.317-3.587,40.874,40.874,0,0,0,2.09-4.528,45.661,45.661,0,0,0,1.933-5.633c.466-1.734.848-3.487,1.15-5.276s.493-3.122.584-4.017.21-2.729.328-5.522.154-5.678.1-8.681-.1-4.956-.128-5.888-.037-2.756-.028-5.458.147-5.386.411-8.024a62.539,62.539,0,0,1,.876-6.2,41.522,41.522,0,0,1,1.177-4.418,40.245,40.245,0,0,1,1.632-4.263,43.887,43.887,0,0,1,2.382-4.564c.967-1.662,1.934-3.168,2.891-4.537s1.671-2.346,2.137-2.948,1.048-1.36,1.76-2.246,1.332-1.67,1.853-2.336.948-1.223,1.294-1.671.886-1.186,1.633-2.2,1.652-2.309,2.683-3.889a56,56,0,0,0,3.3-5.915,44.147,44.147,0,0,0,2.555-6.079,34.3,34.3,0,0,0,1.222-5.294,31.018,31.018,0,0,0,.292-5.842,34.653,34.653,0,0,0-.429-4.8,23.935,23.935,0,0,0-.776-3.131,31.151,31.151,0,0,0-1.477-3.642c-.675-1.479-1.26-2.638-1.733-3.469s-.921-1.525-1.306-2.091-.765-1.1-1.141-1.6-.647-.895-.829-1.168a3.647,3.647,0,0,1-.329-.521c-.027-.073.191-.118.657-.118a5.7,5.7,0,0,1,1.816.356c.748.246,1.3.438,1.66.593s1.068.457,2.118.923,2.152,1,3.311,1.633,2.29,1.314,3.413,2.064,2,1.36,2.656,1.844a38.379,38.379,0,0,1,3.2,2.811,44.326,44.326,0,0,1,3.623,3.761,29.636,29.636,0,0,1,2.71,3.852,41.929,41.929,0,0,1,2.062,3.815,40.958,40.958,0,0,1,2.8,8.983,43.628,43.628,0,0,1,.72,5.878,49.951,49.951,0,0,1,.008,5.979c-.117,1.862-.255,3.3-.4,4.29s-.346,2.036-.583,3.095-.594,2.456-1.1,4.19-1.324,4.008-2.464,6.819-2.007,4.9-2.609,6.262-1.14,2.629-1.623,3.806-.858,2.136-1.132,2.866-.6,1.725-.977,2.986-.666,2.382-.875,3.377-.374,2.036-.511,3.1a25.456,25.456,0,0,0-.072,4.108,22.115,22.115,0,0,0,.63,4.372,18.145,18.145,0,0,0,.912,2.765,19.429,19.429,0,0,0,1.285,2.282,14.553,14.553,0,0,0,2.146,2.638,15.948,15.948,0,0,0,2.509,2.009c.829.52,1.286.794,1.351.822l.628.274a21.473,21.473,0,0,0,2.61.748,18.341,18.341,0,0,0,3.814.575,21.4,21.4,0,0,0,2.773-.054,28.574,28.574,0,0,0,3.029-.566,22.443,22.443,0,0,0,4.415-1.552,26.805,26.805,0,0,0,3.577-1.89,28.347,28.347,0,0,0,2.692-2.1,21.789,21.789,0,0,0,2.563-2.547,22.893,22.893,0,0,0,1.461-1.862,20.7,20.7,0,0,0,1.067-1.817c.429-.785.749-1.424.967-1.926s.411-.931.557-1.3a16.256,16.256,0,0,0,.6-2.145c.246-1.059.419-1.945.511-2.656s.154-1.4.2-2.036.027-1.616-.037-2.921-.1-2.218-.118-2.711-.027-.885-.018-1.168a6.154,6.154,0,0,1,.136-1.013,2.18,2.18,0,0,1,.557.064,4.548,4.548,0,0,1,1.049.429,6.679,6.679,0,0,1,.838.475c.111.091.53.484,1.242,1.186s1.268,1.287,1.679,1.752.821,1,1.24,1.589a58.436,58.436,0,0,1,3.048,6.171,56.112,56.112,0,0,1,3,7.521,39.731,39.731,0,0,1,.939,5.066,41.677,41.677,0,0,1,.192,6.581,53.162,53.162,0,0,1-.465,5.87q-.329,2.108-1.26,5.751t-1.787,6.107q-.863,2.478-2.528,6.362c-1.113,2.584-2,4.6-2.673,6.034s-1.377,2.912-2.118,4.436-1.331,2.766-1.787,3.724-1.233,2.693-2.308,5.185-1.962,4.829-2.683,6.992a49.216,49.216,0,0,0-1.707,6.692,36.58,36.58,0,0,0-.675,6.061,33.053,33.053,0,0,0,.174,4.417c.155,1.205.328,2.255.537,3.15a27.905,27.905,0,0,0,1.206,3.606,27.367,27.367,0,0,0,2.135,4.317,32.853,32.853,0,0,0,1.935,2.93,37.637,37.637,0,0,0,2.946,3.076,29.732,29.732,0,0,0,5.511,4.145,36.945,36.945,0,0,0,5.493,2.811,33.556,33.556,0,0,0,4.424,1.37c1.461.338,2.564.556,3.34.657a37.768,37.768,0,0,0,3.978.219,37.388,37.388,0,0,0,5.027-.182,35.359,35.359,0,0,0,5.183-1.05,43.985,43.985,0,0,0,5.009-1.652,35.138,35.138,0,0,0,3.2-1.47c.793-.42,1.8-1.022,2.992-1.816a33.828,33.828,0,0,0,3.494-2.62,41.32,41.32,0,0,0,3.376-3.258,34.993,34.993,0,0,0,3.048-3.761,32.481,32.481,0,0,0,2.135-3.414c.529-.986.912-1.743,1.159-2.272s.538-1.232.876-2.109.675-1.844.994-2.894.54-1.825.666-2.328.32-1.406.558-2.692a67.388,67.388,0,0,0,.53-8.033,74.825,74.825,0,0,0-.175-9.439c-.228-2.227-.411-3.77-.555-4.647s-.32-1.853-.539-2.939-.666-2.995-1.341-5.742-1.55-5.961-2.609-9.667-1.843-6.508-2.345-8.407-.968-4.181-1.424-6.847a65.388,65.388,0,0,1-.838-6.9,43.3,43.3,0,0,1,.018-5.376,37.577,37.577,0,0,1,.82-5.5,38.09,38.09,0,0,1,1.56-5.376,33.8,33.8,0,0,1,2.646-5.267,35.075,35.075,0,0,1,3.559-5,34.422,34.422,0,0,1,4.215-4.054,36.346,36.346,0,0,1,4.643-3.267,31.251,31.251,0,0,1,4.865-2.255,19.4,19.4,0,0,1,3.749-1.077,5.572,5.572,0,0,1,2.619.429,4.447,4.447,0,0,1-.136.675,5.311,5.311,0,0,1-.412,1.187c-.173.374-.373.757-.592,1.159s-.567,1-1,1.816-.9,1.689-1.387,2.629-.921,1.89-1.3,2.839-.684,1.743-.9,2.4a30.7,30.7,0,0,0-.765,3.04,32.155,32.155,0,0,0-.575,5.158,28.458,28.458,0,0,0,.457,6.353,27.456,27.456,0,0,0,2.344,6.947,26.33,26.33,0,0,0,2.965,5.176,22.614,22.614,0,0,0,2.965,2.948,21.817,21.817,0,0,0,2.9,2.127c.757.448,1.377.767,1.843.986s1.114.457,1.916.739a24.39,24.39,0,0,0,3.632.813,26.182,26.182,0,0,0,4.1.429,25.3,25.3,0,0,0,4.051-.347,37.209,37.209,0,0,0,4.644-1,62.157,62.157,0,0,0,7.272-2.921q5.023-2.272,6.551-3.094c1.021-.539,2.006-1.077,2.956-1.6s1.714-.931,2.3-1.232,1.669-.849,3.266-1.634,2.892-1.387,3.877-1.816,2.326-.9,4.024-1.442a44,44,0,0,1,4.872-1.232,28.851,28.851,0,0,1,3.868-.493,21.047,21.047,0,0,1,3.129.091,15.464,15.464,0,0,1,3.576.895,9.774,9.774,0,0,1,2.682,1.3,7.463,7.463,0,0,1,1.553,2.492,3.355,3.355,0,0,1-.21.484,9.877,9.877,0,0,1-1.05,1.424,24.869,24.869,0,0,1-2.281,2.382c-.948.868-1.8,1.643-2.555,2.318s-1.387,1.241-1.9,1.707-1.432,1.36-2.764,2.7-2.355,2.428-3.058,3.277-1.387,1.734-2.053,2.7a33.451,33.451,0,0,0-2.17,3.724,29.388,29.388,0,0,0-1.788,4.117,27.232,27.232,0,0,0-1.132,9.649,23.46,23.46,0,0,0,.711,4.345,23.765,23.765,0,0,0,1.242,3.469,27.3,27.3,0,0,0,2.281,3.843,24.3,24.3,0,0,0,3.887,4.344,29.517,29.517,0,0,0,4.023,3.113q1.7,1.028,2.647,1.507a35.219,35.219,0,0,0,3.467,1.351,32.654,32.654,0,0,0,5.438,1.36,34.935,34.935,0,0,0,6.012.474,33.548,33.548,0,0,0,5.365-.4,30.222,30.222,0,0,0,4.362-1.078,28.678,28.678,0,0,0,4.634-2.1,28.235,28.235,0,0,0,4.517-3.04,33.723,33.723,0,0,0,3.22-3,28.1,28.1,0,0,0,2-2.373c.5-.684.957-1.342,1.368-1.981s.939-1.561,1.588-2.756,1.15-2.109,1.514-2.729a12.341,12.341,0,0,1,.893-1.37,2.8,2.8,0,0,1,.62-.621c.184-.118.54-.063,1.087.164a5.327,5.327,0,0,1,1.623,1.087,13.361,13.361,0,0,1,1.533,1.752,23.24,23.24,0,0,1,1.5,2.336,33.951,33.951,0,0,1,1.716,3.7,43.356,43.356,0,0,1,1.788,5.541,41.5,41.5,0,0,1,1.076,5.714,39.122,39.122,0,0,1,.219,4.7,33.025,33.025,0,0,1-.3,3.989c-.165,1.214-.337,2.227-.511,3.022a35.711,35.711,0,0,1-1.351,4.108,36.628,36.628,0,0,1-2.163,4.865,39.823,39.823,0,0,1-2.143,3.506,61.882,61.882,0,0,1-4.188,4.993q-3.106,3.436-5.6,5.905c-1.66,1.653-2.958,2.93-3.87,3.852s-1.915,1.936-3.01,3.049-2.363,2.557-3.833,4.3-2.673,3.3-3.631,4.665a54.216,54.216,0,0,0-3.566,6.134,62.613,62.613,0,0,0-2.985,6.426c-.583,1.543-1.048,2.967-1.423,4.254s-.756,2.976-1.169,5.076a62.823,62.823,0,0,0-.848,8.553,67.588,67.588,0,0,0,.111,9.01,68.288,68.288,0,0,0,1.03,6.919,50.63,50.63,0,0,0,1.643,6.116,42.826,42.826,0,0,0,2.509,5.824,39.306,39.306,0,0,0,3.147,5.167q1.589,2.137,2.4,3.013c.547.584,1.3,1.3,2.254,2.145s1.88,1.607,2.765,2.264a26.572,26.572,0,0,0,3.385,2.072,29.923,29.923,0,0,0,3.12,1.488c.712.283,1.35.5,1.917.666s1.513.384,2.846.648a24.3,24.3,0,0,0,4.28.447,25.732,25.732,0,0,0,3.595-.109,34.082,34.082,0,0,0,9.725-3.25,28.67,28.67,0,0,0,5.056-3.578,29.655,29.655,0,0,0,3.731-3.688,31.4,31.4,0,0,0,2.062-2.985,20.826,20.826,0,0,0,2.572-6.061c.284-1.1.475-1.963.576-2.584s.191-1.241.255-1.853a17.588,17.588,0,0,0,.071-2.173c-.018-.849-.044-1.451-.071-1.816s-.055-.7-.073-1.013-.047-.611-.056-.913a5.66,5.66,0,0,1,.028-.959,17.01,17.01,0,0,1,2.537,2.091q.916.944,1.477,1.643c.384.456.949,1.2,1.707,2.218a42.878,42.878,0,0,1,2.39,3.633c.849,1.406,1.459,2.51,1.852,3.3s.767,1.6,1.114,2.428.765,2.008,1.269,3.542a41.156,41.156,0,0,1,1.094,3.989,36.147,36.147,0,0,1,.576,4.436,41.18,41.18,0,0,1,.137,4.811q-.051,1.081-.231,2.423l.253-.111s-.425,3.23-4.23,18.115,52.3,18.422,43-3.966c-6.932-16.69-16.392-39.324-20.759-49.767q-.178-.376-.338-.731-.435-.97-.95-2.348l-1.1-2.632.25.238-.151-.446a56.064,56.064,0,0,1-1.635-5.674q-.514-2.339-.818-4.592t-.438-6.44a59.142,59.142,0,0,1,.061-6.462q.193-2.279.681-5.059t.822-4.042a26.653,26.653,0,0,1,.818-2.547,12.459,12.459,0,0,1,.979-2.1,4.046,4.046,0,0,1,1.379-1.346,5.617,5.617,0,0,1,.716,1.255q.2.545.437,1.2t.576,1.615q.341.956,1.031,2.826t1.777,4.141a39.75,39.75,0,0,0,2.555,4.528,32.064,32.064,0,0,0,3.018,3.975,30.3,30.3,0,0,0,3.594,3.353,29.282,29.282,0,0,0,3.905,2.681,28.648,28.648,0,0,0,4.434,1.958,27.052,27.052,0,0,0,4.646,1.249,31.435,31.435,0,0,0,4.482.378q2.408.041,3.475-.039t3-.4a33.821,33.821,0,0,0,3.978-.925,42.761,42.761,0,0,0,7.195-3.5,41.433,41.433,0,0,0,6.356-4.032,35.808,35.808,0,0,0,2.979-3.314,33.656,33.656,0,0,0,2.753-3.815q.979-1.635,1.522-2.749t1.2-2.821a37.18,37.18,0,0,0,1.307-4.344,42.1,42.1,0,0,0,.967-6.452,47.866,47.866,0,0,0,.241-5.446q-.075-1.628-.423-4.277T1402.2,236q-.414-1.877-1.348-4.89t-1.681-4.872q-.748-1.861-2.224-5.077t-2.328-4.911q-.854-1.693-1.609-3.184t-2.136-4.164q-1.38-2.675-2.688-5.255t-2.778-5.97q-1.47-3.389-2.555-6.689t-1.493-4.993q-.409-1.691-.809-4.327a51.66,51.66,0,0,1-.49-6.429,43.394,43.394,0,0,1,.266-6.517,44.748,44.748,0,0,1,1.254-6q.9-3.271,1.39-4.5t1.35-2.968a51.1,51.1,0,0,1,2.78-4.726,41.313,41.313,0,0,1,3.132-4.379q1.206-1.394,2.1-2.252a18.531,18.531,0,0,1,2.306-1.839,6.339,6.339,0,0,1,2.378-1.139,2.5,2.5,0,0,1,1.069-.068,1.038,1.038,0,0,1,.19.211,3.092,3.092,0,0,1,.183.312,6.2,6.2,0,0,1,.283.688,14.706,14.706,0,0,1,.428,1.568q.248,1.071.456,1.993t.536,2.249q.329,1.326.7,2.691t.916,2.926a39.451,39.451,0,0,0,1.6,3.825,37.052,37.052,0,0,0,2.591,4.582,33.639,33.639,0,0,0,3.175,4.134,27.926,27.926,0,0,0,3.772,3.428,24.052,24.052,0,0,0,4.493,2.7,20.76,20.76,0,0,0,3.6,1.379,18.922,18.922,0,0,0,2.77.4,21.241,21.241,0,0,0,4.123-.208,19.5,19.5,0,0,0,4.575-1.1,25.8,25.8,0,0,0,2.851-1.248q.861-.477,1.375-.813t1.659-1.248a26.85,26.85,0,0,0,2.932-2.885,25.759,25.759,0,0,0,2.689-3.41,32.426,32.426,0,0,0,3.545-8.77,31.792,31.792,0,0,0,.719-4.45q.169-2.049.139-4t-.367-5.062q-.339-3.115-1.044-7.309t-1.007-6.086q-.3-1.893-.69-4.836t-.708-8.162q-.323-5.219-.292-6.481t.186-3.749q.156-2.484.819-6.947t1.587-8.279q.923-3.817,1.848-6.748t1.769-5.167q.842-2.234,4.016-8.763a85.772,85.772,0,0,1,4.753-8.883,59.2,59.2,0,0,1,3.946-5.154,48.231,48.231,0,0,1,4.308-4.554,48.965,48.965,0,0,1,3.851-3.161,59.124,59.124,0,0,1,5.9-3.623,50,50,0,0,1,6.564-3.168,53.087,53.087,0,0,1,7.369-1.931q4.794-.98,6.093-1.09t2.408-.154q1.109-.041,3.661.054a48.361,48.361,0,0,1,5.855.631,41.04,41.04,0,0,1,10.273,2.858,46.875,46.875,0,0,1,4.5,2.092,55.938,55.938,0,0,1,4.942,3.127,57.783,57.783,0,0,1,4.634,3.482q1.622,1.4,3.444,3.289a42.9,42.9,0,0,1,3.315,3.865,21.782,21.782,0,0,1,2.036,3.064,4.623,4.623,0,0,1,.554,1.482,1.811,1.811,0,0,1-.008.4q-.852-.208-.959-.256c-.071-.033-.207-.092-.411-.177s-.62-.268-1.242-.543-1.621-.7-2.991-1.258-2.422-.961-3.155-1.195-1.784-.523-3.152-.873a38.784,38.784,0,0,0-9.543-1.176,40.4,40.4,0,0,0-5.116.27,48.7,48.7,0,0,0-5.847,1.185,47.593,47.593,0,0,0-5.479,1.673,52.8,52.8,0,0,0-4.791,2.249,47.157,47.157,0,0,0-4.566,2.648q-1.724,1.167-3.509,2.649t-2.917,2.61q-1.133,1.126-2.573,2.819a52.511,52.511,0,0,0-3.585,4.961,47.11,47.11,0,0,0-3.473,6.16,50.858,50.858,0,0,0-2.219,5.678q-.894,2.788-1.345,4.8t-.911,5.975a61.7,61.7,0,0,0-.433,7.558q.027,3.595.178,5.113t.631,4.387a52.686,52.686,0,0,0,1.571,6.471,41.427,41.427,0,0,0,2.547,6.516,34.972,34.972,0,0,0,3.182,5.232,31.666,31.666,0,0,0,3.776,4.238,27.8,27.8,0,0,0,4.068,3.2,25.66,25.66,0,0,0,4.4,2.213,23.287,23.287,0,0,0,4.038,1.246,21.05,21.05,0,0,0,2.936.371,20.2,20.2,0,0,0,3-.127,20.8,20.8,0,0,0,3.351-.633,19.069,19.069,0,0,0,2.723-.941,20.106,20.106,0,0,0,2.741-1.59,24.664,24.664,0,0,0,3.87-3.421,24.4,24.4,0,0,0,3.089-3.744,27.137,27.137,0,0,0,1.71-3.395,36.031,36.031,0,0,0,1.663-5.228,40.278,40.278,0,0,0,1.04-5.367q.222-2.116.273-4.111t.049-3.619q0-1.619-.013-2.1c-.006-.32,0-.677.022-1.071a5.3,5.3,0,0,1,.123-.951q.089-.36.337-.341a2.674,2.674,0,0,1,.972.572,16.574,16.574,0,0,1,2.342,2.651,39.377,39.377,0,0,1,2.905,4.33q1.29,2.232,2.07,3.81t1.682,3.805q.9,2.229,1.622,4.685t.909,3.39q.188.933.42,2.367t.4,3.615a45.5,45.5,0,0,1,.057,5.094,47.745,47.745,0,0,1-.415,5.014,42.914,42.914,0,0,1-1.022,4.786,46.1,46.1,0,0,1-2,5.779,52.155,52.155,0,0,1-3.087,6.191,65.527,65.527,0,0,1-4.174,6.273q-2.373,3.177-3.766,4.77t-4.344,4.7q-2.95,3.112-8.862,8.884t-7.544,7.372q-1.634,1.6-4.873,4.95t-6.816,7.6a90.185,90.185,0,0,0-5.828,7.608q-2.254,3.356-3.369,5.418t-2.757,6a59.773,59.773,0,0,0-2.278,6.176q-.637,2.242-1.28,5.817a59.738,59.738,0,0,0-.828,8.008,59.076,59.076,0,0,0,.089,7.545q.275,3.112.573,4.806t.938,4.007a38.579,38.579,0,0,0,1.738,4.876,38.01,38.01,0,0,0,3.176,5.74,31.267,31.267,0,0,0,3.321,4.437,29.417,29.417,0,0,0,3.349,2.826,24.868,24.868,0,0,0,4.444,2.639,25.16,25.16,0,0,0,4.236,1.557,24.74,24.74,0,0,0,3.054.619,25.806,25.806,0,0,0,2.706.151,26.131,26.131,0,0,0,3.18-.172,29.3,29.3,0,0,0,4.207-.894,27.547,27.547,0,0,0,4.714-1.743,29.713,29.713,0,0,0,4.579-2.833,30.205,30.205,0,0,0,4.04-3.483,32.9,32.9,0,0,0,2.229-2.529q.633-.843,1.956-2.893a55.51,55.51,0,0,0,2.89-5.195q1.568-3.145,3.069-6.742t3.31-7.806q1.811-4.212,3.809-8.083a74.6,74.6,0,0,1,3.822-6.655,61.1,61.1,0,0,1,3.775-5.172,99.026,99.026,0,0,1,11.658-11.441q2.385-1.872,5.365-3.907t5.72-3.69q2.74-1.654,4.951-2.858t4.2-2.155q1.992-.951,3.341-1.517t3.3-1.311q1.953-.747,3.064-1.071a12.235,12.235,0,0,1,1.886-.419c.518-.062.89-.094,1.119-.1a3.654,3.654,0,0,1,.4.009,19.611,19.611,0,0,1-1.479,1.354q-.586.468-1.187.974t-2.116,1.8q-1.514,1.288-4.4,4.164a60.23,60.23,0,0,0-4.672,5.127q-1.783,2.253-3.363,4.683t-2.839,4.853q-1.258,2.422-2.591,5.721t-2.234,6.3q-.9,3-1.684,6.421t-1.29,6.492q-.506,3.073-.866,6.131t-.52,5.462q-.16,2.4-.256,6.066t-.073,6.945q.023,3.284.207,7.9t.414,8q.23,3.386.6,7.925t.6,8.031q.089,1.365.158,2.773c6.876,44.838,99.552,63.969,110.662,8.621.058-.29.116-.577.174-.857q-.014-2.322-.133-5.532a87.7,87.7,0,0,0-1.005-11.094q-.765-4.542-1.381-6.83t-2.026-6.033a62.8,62.8,0,0,0-2.945-6.709q-1.536-2.964-2.9-5.076a77.418,77.418,0,0,0-6.42-7.7,70.965,70.965,0,0,0-7.5-7.5,50.61,50.61,0,0,0-5.387-3.648,49.745,49.745,0,0,0-5.456-2.828,51.764,51.764,0,0,0-14.513-3.046,32.6,32.6,0,0,0-4.542.281,26.278,26.278,0,0,0-3.877.84,29.055,29.055,0,0,0-4.175,1.67,29.454,29.454,0,0,0-4.511,2.7,35.466,35.466,0,0,0-3.868,3.2,40.37,40.37,0,0,0-3.484,3.9q-1.814,2.284-2.744,3.63t-1.254,1.794c.011-.021.047-.26.107-.714a13.447,13.447,0,0,1,.527-2.071q.432-1.369,1.042-2.991t1.175-2.986q.565-1.363,2.569-5.472t3.525-6.706q1.521-2.6,2.629-4.218t1.655-2.323q.548-.7,2.7-3.252t3.794-4.17q1.636-1.622,3.211-2.907t2.433-1.9q.86-.611,4.91-2.82a56.407,56.407,0,0,1,5.613-2.806,36.916,36.916,0,0,1,4.944-1.324,38.243,38.243,0,0,1,5.272-.846,33.694,33.694,0,0,1,3.63-.038,34.608,34.608,0,0,1,4.145.491,35.328,35.328,0,0,1,4.858,1.2q2.455.79,3.885,1.377a48.835,48.835,0,0,1,4.542,2.319q3.113,1.733,4.73,2.755t2.307,1.465q.69.442,2.562,1.661t3.327,2.08q1.455.861,2.76,1.525t2.951,1.41a36.328,36.328,0,0,0,4.151,1.521,29.835,29.835,0,0,0,5.472,1.107,30.406,30.406,0,0,0,5.091.2,25.862,25.862,0,0,0,3.438-.393,24.928,24.928,0,0,0,3.135-.9,31.751,31.751,0,0,0,3.121-1.245,36.82,36.82,0,0,0,3.994-2.4,39.2,39.2,0,0,0,4.01-2.942,37.788,37.788,0,0,0,2.857-2.838,41.985,41.985,0,0,0,3.34-4.242,42.464,42.464,0,0,0,3.078-5.074,39.378,39.378,0,0,0,3.534-9.993,41.952,41.952,0,0,0,.74-5.39,39.433,39.433,0,0,0,.1-5.064,36.029,36.029,0,0,0-.547-4.509,46.262,46.262,0,0,0-1.461-5.558,44.643,44.643,0,0,0-1.64-4.553q-.607-1.319-1.561-3t-1.543-2.567q-.59-.89-3.123-3.948a55.385,55.385,0,0,0-4.756-5.133,57.745,57.745,0,0,0-5.673-4.55q-3.449-2.474-7.129-4.636t-6.214-3.525q-2.534-1.364-5.8-3.241t-5.519-3.44q-2.254-1.564-3.585-2.665a41.628,41.628,0,0,1-3.108-2.926,36.439,36.439,0,0,1-3.072-3.55,31.258,31.258,0,0,1-2.352-3.639,33.906,33.906,0,0,1-1.784-3.724q-.728-1.812-1.4-4.1t-1.124-4.427q-.452-2.143-.664-3.338t-.9-5.61q-.692-4.414-1.332-7.517t-1.187-5q-.548-1.9-1.348-3.907a41.667,41.667,0,0,0-1.816-3.943,40.009,40.009,0,0,0-2.61-4.227,32.591,32.591,0,0,0-4.673-5.122,31.918,31.918,0,0,0-5.065-3.99,24.415,24.415,0,0,0-3.454-1.72,19.494,19.494,0,0,0-2.817-.857,19.026,19.026,0,0,0-3.56-.337,23.341,23.341,0,0,0-3.675.166,21.362,21.362,0,0,0-3.066.691,23.877,23.877,0,0,0-3.612,1.465,30.159,30.159,0,0,0-3.956,2.341q-1.95,1.358-2.846,2.074t-1.882,1.605q-.985.89-1.405,1.281t-.668.615c-.007.01.023-.15.09-.477a19.507,19.507,0,0,1,1.782-3.235q1.684-2.742,3.271-4.94t3.4-4.372q1.812-2.178,3.3-3.7t3.341-3.131a38.47,38.47,0,0,1,3.408-2.667,43.681,43.681,0,0,1,4.01-2.373,34.154,34.154,0,0,1,4.932-2.164,32.62,32.62,0,0,1,4.95-1.288,34.028,34.028,0,0,1,8.513.259,37.174,37.174,0,0,1,9.2,1.972,40.716,40.716,0,0,1,6.467,3.363,47.945,47.945,0,0,1,5.4,3.87q2.093,1.784,3.6,3.35t3.717,4.383q2.208,2.817,4.046,5.529t2.923,4.425q1.085,1.71,2.95,4.921t3.065,5.168q1.2,1.959,2.527,3.927t2.348,3.242q1.019,1.274,2.1,2.386a28.77,28.77,0,0,0,2.961,2.57,24.213,24.213,0,0,0,3.468,2.293,19.929,19.929,0,0,0,2.917,1.282,18.191,18.191,0,0,0,4.042.664,17.639,17.639,0,0,0,4.654-.157,21.52,21.52,0,0,0,3.215-.831,20.134,20.134,0,0,0,3.975-2.361,25.726,25.726,0,0,0,3.793-3.075,27.011,27.011,0,0,0,2.3-2.924,25.685,25.685,0,0,0,2.105-3.618,29.66,29.66,0,0,0,1.3-3.073,33.75,33.75,0,0,0,.96-4.4,35.72,35.72,0,0,0,.581-5.485,30.674,30.674,0,0,0-.687-5.976,39.462,39.462,0,0,0-1.51-5.85,49.756,49.756,0,0,0-3.409-6.7,62.561,62.561,0,0,0-3.845-6.127q-1.229-1.586-2.657-3.19t-3.4-3.657q-1.975-2.052-3.023-3.152t-2.38-2.6q-1.33-1.5-2.417-2.778t-2.9-3.833a34.723,34.723,0,0,1-2.919-4.832,28.313,28.313,0,0,1-1.76-4.539,25.073,25.073,0,0,1-.861-5.148,24.8,24.8,0,0,1,.071-4.966,22.024,22.024,0,0,1,1.026-4.251,25.879,25.879,0,0,1,1.816-4.1,30.238,30.238,0,0,1,3.164-4.463,32.582,32.582,0,0,1,4.5-4.495,31.929,31.929,0,0,1,5.126-3.419,20.405,20.405,0,0,1,4.9-1.964,10.477,10.477,0,0,1,3.066-.4,4.644,4.644,0,0,1,1.472.385,2.506,2.506,0,0,1,.721.442,19.885,19.885,0,0,1,.9,3.975q.094,1.332.127,2.549t.377,5.323q.345,4.1.76,6.4a29.928,29.928,0,0,0,2.213,7.12q.514,1.073,1.125,2.083a21.879,21.879,0,0,0,2.553,3.072,26.212,26.212,0,0,0,3.069,2.9q1.126.838,1.822,1.29t1.636.964a21.857,21.857,0,0,0,3.389,1.287q2.449.778,4.293,1.186t2.624.561q.781.153,4.052.539t6.962.962q3.692.576,6.421,1.251t4.023,1.15q1.293.474,2.2.89t1.678.8q.768.387,4.525,3.124a40.958,40.958,0,0,1,5.727,4.854,44.067,44.067,0,0,1,3.989,5.051,50.324,50.324,0,0,1,4.23,7.916A56.569,56.569,0,0,1,1810.5,80a48.323,48.323,0,0,1,.994,5.393,47.62,47.62,0,0,1,.472,6.719,45.891,45.891,0,0,1-.467,6.423q-.456,3.168-.9,4.974t-1.435,4.79q-.989,2.986-2.461,6.5t-2.287,5.278q-.813,1.763-2.752,5.841t-3.752,8.49q-1.812,4.413-2.332,5.973t-1.152,3.952a54.5,54.5,0,0,0-1.181,7.053,46.459,46.459,0,0,0-.336,8.133,38.821,38.821,0,0,0,.7,5.715,34.741,34.741,0,0,0,.9,3.459,36.777,36.777,0,0,0,1.9,4.149,32.286,32.286,0,0,0,2.649,4.483,31.855,31.855,0,0,0,2.16,2.631,26.46,26.46,0,0,0,7.881,5.513,27.026,27.026,0,0,0,10.035,2.563q2,.084,3.07.018a27.122,27.122,0,0,0,3.1-.446,36.275,36.275,0,0,0,9.185-3.231,35.376,35.376,0,0,0,3.156-1.833,33.2,33.2,0,0,0,2.986-2.406,30.4,30.4,0,0,0,3.932-4.33,30.888,30.888,0,0,0,3.241-5.1,29.98,29.98,0,0,0,1.8-4.385q.6-1.957.81-3.035t.357-1.926q.148-.848.328-3.626t.2-5.1q.023-2.324.072-3.2t.162-1.789a5.234,5.234,0,0,1,.622-1.853,2.427,2.427,0,0,1,1.206.041,5.551,5.551,0,0,1,1.944.871,20.348,20.348,0,0,1,2.379,1.9,41.714,41.714,0,0,1,3.1,3.214,50.881,50.881,0,0,1,4.116,5.563,60.151,60.151,0,0,1,3.668,6.245,44.928,44.928,0,0,1,2.425,6.084,47.863,47.863,0,0,1,1.618,6.35,42.415,42.415,0,0,1,.62,6.1,47.291,47.291,0,0,1-.351,6.952,52.893,52.893,0,0,1-1.375,7.315q-.925,3.51-1.592,5.349T1868,206.312a64.227,64.227,0,0,1-4.011,7.005q-2.762,4.322-4.535,6.593t-5.552,6.462q-3.779,4.192-5.733,6.425t-4.131,5.243a42.878,42.878,0,0,0-3.277,5.131,27.963,27.963,0,0,0-1.844,4.477,23.018,23.018,0,0,0-.971,4.887,22.4,22.4,0,0,0-.053,4.2,18.979,18.979,0,0,0,.817,3.7,21.712,21.712,0,0,0,1.961,4.312,25.207,25.207,0,0,0,3.184,4.33,27.885,27.885,0,0,0,4.673,4.022,35.768,35.768,0,0,0,6.275,3.478,42.9,42.9,0,0,0,7.694,2.462,50.1,50.1,0,0,0,8.808,1.157,53.127,53.127,0,0,0,7.762-.131q3.181-.334,5.021-.7t5.012-1.291a66.594,66.594,0,0,0,7.518-2.811,73.489,73.489,0,0,0,9.036-4.744,89.324,89.324,0,0,0,8.243-5.622q3.552-2.759,5.241-4.261t4.516-4.367q2.828-2.865,3.995-4.185t3.773-4.687a85.357,85.357,0,0,0,5.373-7.917,79.591,79.591,0,0,0,4.438-8.22,73.026,73.026,0,0,0,2.927-7.5q1.258-3.833,1.854-6.453t1.188-7.3q.594-4.675.7-7.114t-.037-6.8q-.145-4.364-.592-8.012t-1-6.538q-.558-2.889-1.294-5.829t-2.572-8.2a99.37,99.37,0,0,0-3.7-9.267q-1.87-4.005-3.252-6.529t-3.887-6.36q-2.505-3.835-4.746-6.783t-3.949-4.988q-1.706-2.042-2.931-3.451t-4.745-5.439q-3.523-4.031-6.769-7.962t-5.2-6.582q-1.954-2.652-4.3-6.393t-3.843-6.773a54.586,54.586,0,0,1-2.661-6.393,51.856,51.856,0,0,1-1.751-6.137q-.589-2.774-.883-5.165t-.386-4.33q-.091-1.938.09-5.628t.678-10.955a84.264,84.264,0,0,0,.183-11.411,46.292,46.292,0,0,0-.966-6.928,35.817,35.817,0,0,0-1.6-5.142,27.517,27.517,0,0,0-3.062-5.378,30.378,30.378,0,0,0-3.608-4.431,31.721,31.721,0,0,0-2.438-2.134,25.836,25.836,0,0,0-2.941-1.822,25.436,25.436,0,0,0-3.591-1.682,23.953,23.953,0,0,0-3.7-.973,25.219,25.219,0,0,0-3.618-.453,30.363,30.363,0,0,0-4.107.217,34.329,34.329,0,0,0-5.358,1.02,39.424,39.424,0,0,0-4.876,1.632q-2.114.882-3.146,1.4t-3.115,1.623q-2.083,1.11-2.963,1.485a5.232,5.232,0,0,1-1.54.43q-.127-.163.233-1.381a8.738,8.738,0,0,1,1.141-2.387q.781-1.171,1.374-1.906t2.815-3.017a53.539,53.539,0,0,1,4.831-4.372,56.7,56.7,0,0,1,6.168-4.243,57.983,57.983,0,0,1,7.055-3.657A59.874,59.874,0,0,1,1879.469.541,61.125,61.125,0,0,1,1886.877,0a52.76,52.76,0,0,1,5.966.352,51.762,51.762,0,0,1,7.038,1.41,49.932,49.932,0,0,1,8.748,3.308,47.942,47.942,0,0,1,8.356,5.021,44.6,44.6,0,0,1,5.834,5.145,40.2,40.2,0,0,1,3.8,4.79q1.621,2.422,2.268,3.641t1.722,3.83a49.055,49.055,0,0,1,2.014,6.2,72.6,72.6,0,0,1,1.591,8.275q.653,4.684.916,7.166t1.492,9.608a67.41,67.41,0,0,0,2.105,9.545,29.191,29.191,0,0,0,2.169,4.661,29.64,29.64,0,0,0,2.145,3.325,23.408,23.408,0,0,0,2.122,2.309,21.318,21.318,0,0,0,2.971,2.365,23.236,23.236,0,0,0,2.952,1.722,22.471,22.471,0,0,0,3.975,1.241,23.278,23.278,0,0,0,5.562.642,25.386,25.386,0,0,0,5.71-.687A33.291,33.291,0,0,0,1970.7,82.6a33.849,33.849,0,0,0,3.154-1.454,47.528,47.528,0,0,0,5.276-3.524,48.905,48.905,0,0,0,5.984-5.076,46.829,46.829,0,0,0,7.282-9.738q1.146-2.1,1.91-3.888a46.5,46.5,0,0,0,1.719-5.071,41.081,41.081,0,0,0,1.358-6.742,40.52,40.52,0,0,0-.443-12.773q-.6-3.141-1.22-5.265t-1.064-3.367q-.444-1.243-.731-2t-.647-1.8a14.369,14.369,0,0,1-.475-1.57,3.9,3.9,0,0,1-.088-1.024q.071-.038,2.583.283a20.381,20.381,0,0,1,5.4,1.563q2.888,1.24,4.438,2.056t5.084,3.095a65.753,65.753,0,0,1,6.19,4.47,54.166,54.166,0,0,1,4.716,4.35,44.717,44.717,0,0,1,4.707,6.2,46.243,46.243,0,0,1,4.048,7.408,45.2,45.2,0,0,1,2.249,6.942,46.883,46.883,0,0,1,1.132,7.224,45.779,45.779,0,0,1-.116,7.86,54.732,54.732,0,0,1-.877,6.33,54.905,54.905,0,0,1-1.552,5.294,58.71,58.71,0,0,1-2.535,6.273q-1.46,3.093-2.83,5.459t-7.459,10.828q-6.088,8.462-9.285,12.906t-4.51,6.54q-1.313,2.1-2.738,4.832a53.809,53.809,0,0,0-2.613,5.882,42.109,42.109,0,0,0-1.771,5.794,31.418,31.418,0,0,0-.7,5.368,33.579,33.579,0,0,0,1.044,7.99,32.514,32.514,0,0,0,2.2,7.216,29.478,29.478,0,0,0,2.027,3.339,30.782,30.782,0,0,0,2.573,3.071,35.971,35.971,0,0,0,3.447,3.212,33.235,33.235,0,0,0,4.461,3.027,37.673,37.673,0,0,0,6.031,2.735,45.027,45.027,0,0,0,6.31,1.821,56.9,56.9,0,0,0,8.12.823,63.761,63.761,0,0,0,8.845-.1,59.939,59.939,0,0,0,7.652-1.277,58.69,58.69,0,0,0,8.94-2.926,57.748,57.748,0,0,0,8.052-3.92,47.385,47.385,0,0,0,5.828-4.153,43.29,43.29,0,0,0,5.229-5.272,45.693,45.693,0,0,0,3.98-5.338,48.86,48.86,0,0,0,2.943-5.771,52.7,52.7,0,0,0,2.272-5.933q.738-2.456,1.535-5.792t1.348-4.882a9.189,9.189,0,0,1,.8-1.869q.249-.322.443-.3a1.815,1.815,0,0,1,.534.177c.227.106.355.167.385.185s.3.3.8.845a11.365,11.365,0,0,1,1.257,1.619q.5.8,1.625,3.121a53.175,53.175,0,0,1,2.438,6.32,67.229,67.229,0,0,1,2.169,8.506q.854,4.507,1.078,7a74.279,74.279,0,0,1,.061,7.894,65.415,65.415,0,0,1-.779,8.965q-.618,3.56-1.177,5.541t-1.383,4.15q-.824,2.168-1.412,3.435t-1.724,3.3a47.768,47.768,0,0,1-3.182,4.819,50.723,50.723,0,0,1-5.417,6.076,69.684,69.684,0,0,1-7.514,6.327q-4.141,3.033-5.181,3.708t-6.048,3.6q-5.007,2.918-11.491,6.3t-9.72,5.07q-3.236,1.693-6.7,3.685t-5.71,3.417q-2.245,1.426-5.2,3.6t-4.837,3.8q-1.889,1.628-2.826,2.534t-2.825,2.976q-1.887,2.073-3.165,3.755t-2.036,2.824q-.76,1.14-2.131,3.561a48.109,48.109,0,0,0-2.576,5.333,42.276,42.276,0,0,0-2.017,6.267,44.029,44.029,0,0,0-1.05,5.7,46.544,46.544,0,0,0-.124,6.025,45.564,45.564,0,0,0,.713,6.882,43.438,43.438,0,0,0,2.271,7.529,44.433,44.433,0,0,0,3.7,7.548,43.134,43.134,0,0,0,3.926,5.406,37.692,37.692,0,0,0,4.188,4.1,40.557,40.557,0,0,0,3.6,2.772q1.312.855,2.537,1.507t3.091,1.427a35.3,35.3,0,0,0,10,2.394,37.636,37.636,0,0,0,5.891.075,38.359,38.359,0,0,0,6.442-1.039,42.756,42.756,0,0,0,6.94-2.332,50.693,50.693,0,0,0,5.3-2.581q1.865-1.1,3.06-1.922t3.144-2.375q1.949-1.549,4.457-3.911a65.522,65.522,0,0,0,4.874-5.126q2.364-2.764,4.391-5.605t3.173-4.663q1.147-1.823,2.222-3.671t2.7-4.966q1.623-3.118,3.823-7.444t4.8-9.136q2.605-4.808,4.167-7.322a66.083,66.083,0,0,1,4.153-5.8,54.841,54.841,0,0,1,5.437-5.978,47.185,47.185,0,0,1,5.305-4.4,42.962,42.962,0,0,1,4.725-2.893,46.95,46.95,0,0,1,7.062-2.688,49.42,49.42,0,0,1,7.894-1.924,48.483,48.483,0,0,1,5.987-.44q2.891-.025,4.721.146t4.719.721a46.775,46.775,0,0,1,6.58,1.835,38.58,38.58,0,0,1,6.539,2.926,17.394,17.394,0,0,1,4.392,3.39,6.865,6.865,0,0,1,1.786,3.11,11.124,11.124,0,0,1-1.372,1.041,16.711,16.711,0,0,1-3.743,1.817q-2.446.9-3.971,1.439t-2.392.883q-.865.346-2.125.9t-2.607,1.257q-1.348.706-2.413,1.375a29.712,29.712,0,0,0-2.642,1.935,26.642,26.642,0,0,0-3.364,3.331,30.737,30.737,0,0,0-2.618,3.371,18.907,18.907,0,0,0-1.449,2.769,19.406,19.406,0,0,0-1.054,4.534,18.558,18.558,0,0,0-.191,4.856,14.6,14.6,0,0,0,.653,2.917,11.616,11.616,0,0,0,1.144,2.286,13.617,13.617,0,0,0,2.209,2.525,12.673,12.673,0,0,0,2.678,2,13.778,13.778,0,0,0,3.5,1.087,18.745,18.745,0,0,0,4.818.308,33.134,33.134,0,0,0,3.772-.385q1.251-.234,3.649-.9t3.859-1.051a21.955,21.955,0,0,1,2.512-.538,11.048,11.048,0,0,1,2.117-.093,9.507,9.507,0,0,1,2.071,3.184,11.943,11.943,0,0,1,.173,3.629,21.791,21.791,0,0,1-.591,4.114,27.1,27.1,0,0,1-.888,2.836q-.452,1.169-.967,2.244t-1.356,2.482a30.51,30.51,0,0,1-2.626,3.567,31.564,31.564,0,0,1-3.92,3.968,30.578,30.578,0,0,1-4.137,3,30.194,30.194,0,0,1-3.688,1.89q-1.685.7-2.51.974t-2.685.737q-1.86.466-4.621.874t-5.878.61q-3.116.2-4.882.282t-4.383.244q-2.62.163-6.632.672t-6.1.963a40.22,40.22,0,0,0-8.939,3.22q-1.92.993-3,1.685a44.657,44.657,0,0,0-4.47,3.843,36.254,36.254,0,0,0-4.586,4.841,33.6,33.6,0,0,0-2.6,4.588,31.611,31.611,0,0,0-2.109,5.47,29.08,29.08,0,0,0-.92,4.9,25.753,25.753,0,0,0,.04,4.97,24.141,24.141,0,0,0,1,4.946,22.477,22.477,0,0,0,4.636,7.893,23.54,23.54,0,0,0,1.814,1.7,13.2,13.2,0,0,0,1.623,1.1,14.962,14.962,0,0,0,1.825.919,22.232,22.232,0,0,0,2.554.818q1.681.455,2.278.541c.4.057.784.109,1.159.153s.918.082,1.632.114,1.3.044,1.752.034,1.044-.045,1.767-.105,2.505-.255,5.347-.586l.941-.066.032,13.538H1688.845c0,.086,0,.131,0,.131H1523.576l.011-.035-123.362-.552.058.343h-76.142a86.71,86.71,0,0,1-13.737,1.208A39.7,39.7,0,0,1,1301.011,386.513ZM267.361,272.2h0Zm1332.083-.131h0Z" transform="translate(0.5 0.5)" fill="#e61c31" stroke="rgba(0,0,0,0)" stroke-miterlimit="10" stroke-width="1"/>
</svg>
